<svg xmlns="http://www.w3.org/2000/svg" width="48.5" height="48.5" viewBox="0 0 48.5 48.5">
  <g id="Group_62" data-name="Group 62" transform="translate(-111 -235.89)">
    <path id="Path_662" data-name="Path 662" d="M111,235.89v34.419h9.387v11.343a2.734,2.734,0,0,0,4.694,1.91,2.734,2.734,0,0,0,4.694-1.91V270.309H159.5V235.89Zm20.339,31.29a1.566,1.566,0,0,1-1.565,1.565V261.7H128.21v19.948a1.173,1.173,0,1,1-2.347,0V267.18H124.3v14.472a1.173,1.173,0,1,1-2.347,0V261.7h-1.565v7.04a1.566,1.566,0,0,1-1.565-1.565v-4.694a6.258,6.258,0,1,1,12.516,0Zm-10.169-16.427a3.911,3.911,0,1,1,3.911,3.911,3.916,3.916,0,0,1-3.911-3.911Zm36.766,17.992H132.468a3.1,3.1,0,0,0,.435-1.565v-4.251l3.345-2.007h20.122v-1.565h-1.565V245.277h-4.694v14.081h-1.565v-7.823h-4.694v7.823H142.29V246.842H137.6v12.516h-1.781l-3.031,1.819a7.843,7.843,0,0,0-4.642-5.886,5.476,5.476,0,1,0-6.125,0,7.832,7.832,0,0,0-4.76,7.2v4.694a3.1,3.1,0,0,0,.435,1.565h-5.128V243.713h45.371Zm-18.774-9.387V248.406h1.565v10.952Zm6.258,0V253.1h1.565v6.258Zm6.258,0V246.842h1.565v12.516Zm6.258-17.21H112.565v-4.694h45.371Zm0,0" transform="translate(0 0)" fill="#fff"/>
    <rect id="Rectangle_72" data-name="Rectangle 72" width="1" height="2" transform="translate(114.5 238.89)" fill="#fff"/>
    <rect id="Rectangle_73" data-name="Rectangle 73" width="1" height="2" transform="translate(117.5 238.89)" fill="#fff"/>
    <rect id="Rectangle_74" data-name="Rectangle 74" width="1" height="2" transform="translate(120.5 238.89)" fill="#fff"/>
    <rect id="Rectangle_75" data-name="Rectangle 75" width="2" height="2" transform="translate(154.5 262.89)" fill="#fff"/>
    <rect id="Rectangle_76" data-name="Rectangle 76" width="8" height="2" transform="translate(145.5 262.89)" fill="#fff"/>
    <rect id="Rectangle_77" data-name="Rectangle 77" width="2" height="2" transform="translate(154.5 265.89)" fill="#fff"/>
    <rect id="Rectangle_78" data-name="Rectangle 78" width="8" height="2" transform="translate(145.5 265.89)" fill="#fff"/>
    <rect id="Rectangle_79" data-name="Rectangle 79" width="1" height="2" transform="translate(114.5 265.89)" fill="#fff"/>
    <rect id="Rectangle_80" data-name="Rectangle 80" width="1" height="2" transform="translate(114.5 262.89)" fill="#fff"/>
    <rect id="Rectangle_81" data-name="Rectangle 81" width="1" height="3" transform="translate(114.5 258.89)" fill="#fff"/>
  </g>
</svg>
