<svg xmlns="http://www.w3.org/2000/svg" width="41.69" height="39" viewBox="0 0 41.69 39">
  <g id="Group_63" data-name="Group 63" transform="translate(12 -131.89)">
    <path id="Path_663" data-name="Path 663" d="M-11.328,148.7H-7.6a10.007,10.007,0,0,0,.947,2.278l-2.64,2.639a.672.672,0,0,0-.2.476.672.672,0,0,0,.2.476l2.853,2.853a.673.673,0,0,0,.951,0l2.641-2.641a10,10,0,0,0,2.277.947v3.73a.672.672,0,0,0,.672.672H4.138a.672.672,0,0,0,.672-.672v-3.73a10,10,0,0,0,2.278-.947l2.641,2.641a.692.692,0,0,0,.951,0l2.853-2.853a.672.672,0,0,0,0-.951l-2.641-2.639a10,10,0,0,0,.947-2.278h3.73a.672.672,0,0,0,.672-.672v-4.035a.672.672,0,0,0-.672-.672h-3.73a10,10,0,0,0-.947-2.278l2.64-2.639a.672.672,0,0,0,0-.951L10.679,134.6a.673.673,0,0,0-.951,0L7.088,137.24a10.029,10.029,0,0,0-2.278-.947v-3.731a.672.672,0,0,0-.672-.672H.1a.673.673,0,0,0-.672.672v3.731a10.028,10.028,0,0,0-2.277.947L-5.487,134.6a.692.692,0,0,0-.951,0l-2.853,2.853a.672.672,0,0,0-.2.476.672.672,0,0,0,.2.476l2.641,2.639a10.01,10.01,0,0,0-.947,2.278h-3.73a.673.673,0,0,0-.672.672v4.035a.672.672,0,0,0,.672.672Zm.672-4.034h3.584a.672.672,0,0,0,.657-.529A8.651,8.651,0,0,1-5.236,141.3a.673.673,0,0,0-.091-.839l-2.538-2.537,1.9-1.9,2.537,2.538a.673.673,0,0,0,.839.091,8.664,8.664,0,0,1,2.834-1.178.673.673,0,0,0,.529-.657v-3.584h2.69v3.584a.673.673,0,0,0,.528.657,8.661,8.661,0,0,1,2.833,1.178.673.673,0,0,0,.839-.091l2.537-2.538,1.9,1.9-2.537,2.537a.673.673,0,0,0-.091.839,8.649,8.649,0,0,1,1.177,2.834.673.673,0,0,0,.657.529H14.9v2.69H11.312a.673.673,0,0,0-.657.528,8.644,8.644,0,0,1-1.177,2.833.673.673,0,0,0,.091.839l2.538,2.537L10.2,156l-2.537-2.538a.673.673,0,0,0-.839-.091,8.64,8.64,0,0,1-2.833,1.178.673.673,0,0,0-.529.657v3.584H.776V155.2a.673.673,0,0,0-.529-.657,8.644,8.644,0,0,1-2.833-1.178.673.673,0,0,0-.839.091L-5.962,156l-1.9-1.9,2.537-2.537a.672.672,0,0,0,.091-.839,8.657,8.657,0,0,1-1.178-2.834.672.672,0,0,0-.657-.528h-3.584Zm0,0" fill="#fff"/>
    <path id="Path_664" data-name="Path 664" d="M123.317,272.583a5.379,5.379,0,1,0-5.379-5.379,5.379,5.379,0,0,0,5.379,5.379Zm0-9.414a4.035,4.035,0,1,1-4.034,4.035,4.035,4.035,0,0,1,4.034-4.035Zm0,0" transform="translate(-121.196 -121.193)" fill="#fff"/>
    <path id="Path_665" data-name="Path 665" d="M95.349,246.633a7.4,7.4,0,1,0-7.4-7.4,7.4,7.4,0,0,0,7.4,7.4Zm0-13.448a6.052,6.052,0,1,1-6.052,6.052,6.052,6.052,0,0,1,6.052-6.052Zm0,0" transform="translate(-93.229 -93.226)" fill="#fff"/>
    <path id="Path_666" data-name="Path 666" d="M26.328,423.853v-5.379a.673.673,0,0,0-.672-.672H24.311v-5.379a.673.673,0,0,0-.672-.672H17.586a.672.672,0,0,0-.673.672V417.8H13.552a.672.672,0,0,0-.672.672v5.379H-8.638A3.366,3.366,0,0,0-12,427.215v1.345a3.366,3.366,0,0,0,3.362,3.362H26.328a3.366,3.366,0,0,0,3.362-3.362v-1.345a3.366,3.366,0,0,0-3.362-3.362Zm-1.345,0H20.276v-4.707h4.707Zm-6.724-10.759h4.707V417.8H18.259Zm-4.034,6.052h4.707v4.707H14.224Zm14.121,9.414a2.017,2.017,0,0,1-2.017,2.017H-8.638a2.017,2.017,0,0,1-2.017-2.017v-1.345A2.017,2.017,0,0,1-8.638,425.2H26.328a2.017,2.017,0,0,1,2.017,2.017Zm0,0" transform="translate(0 -261.032)" fill="#fff"/>
    <path id="Path_667" data-name="Path 667" d="M269.877,621.64a2.017,2.017,0,1,0,2.017,2.018,2.018,2.018,0,0,0-2.017-2.018Zm0,2.69a.672.672,0,1,1,.672-.672.672.672,0,0,1-.672.672Zm0,0" transform="translate(-261.032 -456.802)" fill="#fff"/>
    <path id="Path_668" data-name="Path 668" d="M169.927,621.64a2.017,2.017,0,1,0,2.017,2.018,2.018,2.018,0,0,0-2.017-2.018Zm0,2.69a.672.672,0,1,1,.672-.672.672.672,0,0,1-.672.672Zm0,0" transform="translate(-167.807 -456.802)" fill="#fff"/>
    <path id="Path_669" data-name="Path 669" d="M369.826,621.64a2.017,2.017,0,1,0,2.017,2.018,2.018,2.018,0,0,0-2.017-2.018Zm0,2.69a.672.672,0,1,1,.672-.672.672.672,0,0,1-.672.672Zm0,0" transform="translate(-354.257 -456.802)" fill="#fff"/>
    <path id="Path_670" data-name="Path 670" d="M69.978,621.64A2.017,2.017,0,1,0,72,623.658a2.018,2.018,0,0,0-2.017-2.018Zm0,2.69a.672.672,0,1,1,.672-.672.672.672,0,0,1-.672.672Zm0,0" transform="translate(-74.582 -456.802)" fill="#fff"/>
    <path id="Path_671" data-name="Path 671" d="M469.775,621.64a2.017,2.017,0,1,0,2.017,2.018,2.018,2.018,0,0,0-2.017-2.018Zm0,2.69a.672.672,0,1,1,.672-.672.672.672,0,0,1-.672.672Zm0,0" transform="translate(-447.482 -456.802)" fill="#fff"/>
  </g>
</svg>
