<?xml version="1.0" encoding="utf-8"?>
<!-- Generator: Adobe Illustrator 23.1.1, SVG Export Plug-In . SVG Version: 6.00 Build 0)  -->
<svg version="1.1" xmlns="http://www.w3.org/2000/svg" xmlns:xlink="http://www.w3.org/1999/xlink" x="0px" y="0px"
	 viewBox="0 0 1720.5 1214.67" style="enable-background:new 0 0 1720.5 1214.67;" xml:space="preserve">
<style type="text/css">
	.st0{opacity:0.1;}
	.st1{fill:url(#XMLID_3_);}
	.st2{fill:#7DC1FD;}
	.st3{fill:#1470B2;}
	.st4{fill:url(#XMLID_4_);}
	.st5{fill:#F9D031;}
	.st6{fill:url(#SVGID_1_);}
	.st7{fill:#34BF89;}
	.st8{fill:none;stroke:#238052;stroke-width:0.4382;stroke-miterlimit:10;}
	.st9{fill:url(#SVGID_2_);}
	.st10{fill:url(#SVGID_3_);}
	.st11{fill:url(#SVGID_4_);}
	.st12{fill:url(#SVGID_5_);}
	.st13{fill:url(#SVGID_6_);}
	.st14{fill:url(#SVGID_7_);}
	.st15{fill:url(#SVGID_8_);}
	.st16{fill:url(#SVGID_9_);}
	.st17{fill:url(#SVGID_10_);}
	.st18{fill:url(#SVGID_11_);}
	.st19{fill:url(#SVGID_12_);}
	.st20{fill:url(#SVGID_13_);}
	.st21{fill:url(#SVGID_14_);}
	.st22{fill:url(#SVGID_15_);}
	.st23{fill:url(#SVGID_16_);}
	.st24{fill:url(#SVGID_17_);}
	.st25{fill:url(#SVGID_18_);}
	.st26{fill:#FECA2F;}
	.st27{fill:#FDDDAE;}
	.st28{fill:#FFFFFF;}
	.st29{fill:#0A2B48;}
	.st30{fill:#FEDEAF;}
	.st31{opacity:0.2;fill:#FFFFFF;}
	.st32{fill-rule:evenodd;clip-rule:evenodd;fill:#FFFFFF;}
	.st33{fill:url(#SVGID_19_);}
	.st34{fill:url(#SVGID_20_);}
	.st35{fill:url(#SVGID_21_);}
	.st36{fill:url(#SVGID_22_);}
	.st37{fill:url(#SVGID_23_);}
	.st38{fill:url(#SVGID_24_);}
	.st39{fill:url(#SVGID_25_);}
	.st40{fill:url(#SVGID_26_);}
	.st41{fill:url(#SVGID_27_);}
</style>
<g id="Background">
</g>
<g id="Object">
	<g>
		<ellipse class="st0" cx="1001.76" cy="1171.46" rx="718.74" ry="43.21"/>
		<g>
			<g id="XMLID_110_">
				
					<linearGradient id="XMLID_3_" gradientUnits="userSpaceOnUse" x1="1919.2854" y1="-895.853" x2="2171.0535" y2="-552.5323" gradientTransform="matrix(-0.0741 0.9973 0.9973 0.0741 1605.4573 -1060.4619)">
					<stop  offset="0" style="stop-color:#FDDA42"/>
					<stop  offset="1" style="stop-color:#E5A003"/>
				</linearGradient>
				<path id="XMLID_131_" class="st1" d="M783.23,1079.47c-22.99-7.48-42.49-25.53-48.81-49.29c-3.76-14.14,0.81-33.95-11.8-44.3
					c-10.85-8.91-26.59-8.09-39.38-12.55c-22.6-7.89-40.73-27.22-47.45-50.15c-4.57-15.6-1.65-33.12-9.49-47.78
					c-7.24-13.52-20.83-22.01-32.46-31.37c-16.75-13.49-36.89-40.36-19.09-61.08c15.06-17.54,43.02-11.54,60.93-2.67
					c6.4,3.17,12.46,7.01,18.05,11.47c6.45,5.14,11.69,11.78,18.4,16.56c7.11,5.06,15.84,10.1,24.42,11.84
					c7.76,1.58,15.79,1.56,23.57,3.19c28.6,5.98,51.81,26.5,67.71,50.3c10.58,15.83,19.65,28.04,37.99,35.18
					c14.24,5.55,29.52,8.71,42.66,16.82c25.9,15.98,36.37,46.5,34.56,75.72c-0.05,0.8-0.45,1.49-1.03,1.96
					C892.34,1056.54,836.21,1094.36,783.23,1079.47z"/>
				<path id="XMLID_121_" class="st2" d="M783.23,1079.47c-22.99-7.48-42.49-25.53-48.81-49.29c-3.76-14.14,0.81-33.95-11.8-44.3
					c-10.85-8.91-26.59-8.09-39.38-12.55c-22.6-7.89-40.73-27.22-47.45-50.15c-4.57-15.6-1.65-33.12-9.49-47.78
					c-7.24-13.52-20.83-22.01-32.46-31.37c-16.75-13.49-36.89-40.36-19.09-61.08c15.06-17.54,43.02-11.54,60.93-2.67
					c6.4,3.17,12.46,7.01,18.05,11.47c6.45,5.14,11.69,11.78,18.4,16.56c7.11,5.06,15.84,10.1,24.42,11.84
					c7.76,1.58,15.79,1.56,23.57,3.19c28.6,5.98,51.81,26.5,67.71,50.3c10.58,15.83,19.65,28.04,37.99,35.18
					c14.24,5.55,29.52,8.71,42.66,16.82c25.9,15.98,36.37,46.5,34.56,75.72c-0.05,0.8-0.45,1.49-1.03,1.96
					C892.34,1056.54,836.21,1094.36,783.23,1079.47z"/>
				<path id="XMLID_111_" class="st3" d="M905.24,1071.27c-23.03-20.88-46.1-41.72-69.18-62.55c-0.04,0-0.07,0.01-0.11,0.01
					c-28.21,0.51-56.07-2.96-83.33-10.25c-3.55-0.95-1.62-6.34,1.93-5.39c24.63,6.59,49.78,9.85,75.21,9.94
					c-19.56-17.64-39.15-35.25-58.74-52.85c-0.26,0.08-0.54,0.13-0.85,0.14c-29.12,0.39-57.93-2.86-86.25-9.58
					c-3.57-0.85-1.63-6.23,1.93-5.39c25.95,6.15,52.35,9.17,78.97,9.25c-18.36-16.49-36.75-32.95-55.15-49.41
					c-20.45-0.86-40.7-3.35-60.75-7.48c-3.56-0.73-3.18-6.45,0.42-5.71c17.69,3.64,35.54,6.01,53.54,7.11
					c-18.32-16.39-36.66-32.75-55.02-49.11c-0.34,0.13-0.72,0.21-1.15,0.2c-13.38-0.22-26.7-1.03-40-2.45
					c-3.65-0.39-3.25-6.1,0.42-5.71c11.44,1.22,22.89,1.97,34.38,2.3c-12.3-10.95-24.58-21.92-36.89-32.86
					c-2.72-2.41,0.49-7.16,3.25-4.71c17,15.11,33.97,30.25,50.95,45.38c-3.95-11.49-7.56-23.09-10.74-34.84
					c-0.96-3.56,4.66-4.65,5.62-1.11c4,14.79,8.64,29.36,13.88,43.75c14.94,13.33,29.87,26.68,44.79,40.03
					c0.18,0.12,0.34,0.26,0.47,0.42c8.35,7.47,16.69,14.93,25.03,22.41c-3.03-24.97-8.77-49.38-17.35-73.07
					c-1.25-3.45,3.98-5.79,5.23-2.32c9.5,26.25,15.73,53.37,18.55,81.15c21.25,19.06,42.48,38.14,63.7,57.24
					c-1.96-19.82-3.91-39.64-5.87-59.45c-0.36-3.64,5.25-4.77,5.62-1.11c2.18,22.07,4.36,44.14,6.54,66.21
					c31.8,28.64,63.57,57.32,95.28,86.06C912.3,1070,907.94,1073.72,905.24,1071.27z"/>
			</g>
			<g id="XMLID_14_">
				
					<linearGradient id="XMLID_4_" gradientUnits="userSpaceOnUse" x1="1408.4647" y1="1609.3142" x2="1654.3096" y2="1944.5576" gradientTransform="matrix(0.7687 0.6396 -0.6396 0.7687 909.6708 -1517.3601)">
					<stop  offset="0" style="stop-color:#FDDA42"/>
					<stop  offset="1" style="stop-color:#E5A003"/>
				</linearGradient>
				<path id="XMLID_97_" class="st4" d="M1023.44,968.7c10.35-21.22,10.9-47.16-1.5-67.71c-7.38-12.23-24.39-22.47-23.1-38.34
					c1.11-13.66,12.36-24.16,17.9-36.17c9.79-21.23,8.52-47.07-3.02-67.35c-7.85-13.8-22.14-23.63-27.11-39.08
					c-4.59-14.26-1.32-29.56-0.01-44.08c1.89-20.91-3.32-53.29-29.94-54.85c-22.53-1.32-37.29,22.38-43.21,40.97
					c-2.12,6.65-3.53,13.51-4.19,20.45c-0.76,8.02,0.34,16.21-0.86,24.16c-1.27,8.42-3.65,17.97-8.25,25.18
					c-4.16,6.52-9.61,12.15-13.75,18.71c-15.2,24.13-16.54,54.36-10.62,81.67c3.94,18.17,6.36,32.82-1.06,50.54
					c-5.77,13.77-13.91,26.63-17.13,41.37c-6.35,29.03,7.98,57.08,29.73,75.64c0.6,0.51,1.35,0.69,2.07,0.61
					C933.32,1029.76,997.95,1016,1023.44,968.7z"/>
				<path id="XMLID_190_" class="st2" d="M1023.44,968.7c10.35-21.22,10.9-47.16-1.5-67.71c-7.38-12.23-24.39-22.47-23.1-38.34
					c1.11-13.66,12.36-24.16,17.9-36.17c9.79-21.23,8.52-47.07-3.02-67.35c-7.85-13.8-22.14-23.63-27.11-39.08
					c-4.59-14.26-1.32-29.56-0.01-44.08c1.89-20.91-3.32-53.29-29.94-54.85c-22.53-1.32-37.29,22.38-43.21,40.97
					c-2.12,6.65-3.53,13.51-4.19,20.45c-0.76,8.02,0.34,16.21-0.86,24.16c-1.27,8.42-3.65,17.97-8.25,25.18
					c-4.16,6.52-9.61,12.15-13.75,18.71c-15.2,24.13-16.54,54.36-10.62,81.67c3.94,18.17,6.36,32.82-1.06,50.54
					c-5.77,13.77-13.91,26.63-17.13,41.37c-6.35,29.03,7.98,57.08,29.73,75.64c0.6,0.51,1.35,0.69,2.07,0.61
					C933.32,1029.76,997.95,1016,1023.44,968.7z"/>
				<path id="XMLID_94_" class="st3" d="M934.91,1048.81c0.97-30.34,1.98-60.68,3.01-91.01c0.03-0.02,0.06-0.04,0.08-0.07
					c19.5-19.46,35.96-41.39,49.33-65.47c1.74-3.14-3.35-5.44-5.09-2.3c-12.09,21.77-26.86,41.63-44.05,59.56
					c0.88-25.7,1.81-51.4,2.74-77.1c0.23-0.13,0.46-0.29,0.67-0.5c20.02-20.18,37.29-42.62,51.79-67.07
					c1.83-3.08-3.27-5.37-5.09-2.3c-13.29,22.39-29.07,42.98-47.08,61.73c0.88-24.08,1.8-48.16,2.72-72.24
					c13.27-14.95,25.26-30.85,35.97-47.73c1.9-2.99-2.37-6.61-4.29-3.57c-9.45,14.9-19.89,29.03-31.34,42.42
					c0.92-23.98,1.87-47.97,2.84-71.95c0.32-0.15,0.64-0.36,0.93-0.67c8.92-9.54,17.39-19.45,25.42-29.75
					c2.21-2.83-2.08-6.42-4.3-3.57c-6.9,8.86-14.15,17.41-21.71,25.7c0.65-16.07,1.28-32.14,1.95-48.2
					c0.15-3.54-5.36-4.51-5.51-0.92c-0.93,22.19-1.81,44.38-2.7,66.57c-5.39-10.57-11.08-20.97-17.18-31.17
					c-1.85-3.09-6.42,0.12-4.59,3.19c7.67,12.84,14.76,25.98,21.3,39.43c-0.78,19.54-1.53,39.07-2.28,58.61
					c-0.03,0.21-0.05,0.42-0.02,0.62c-0.42,10.93-0.84,21.85-1.25,32.78c-15.48-19.06-28.72-39.66-39.54-61.76
					c-1.58-3.22-6.76-1.14-5.18,2.1c11.99,24.48,26.8,47.26,44.4,68.08c-1.04,27.85-2.04,55.71-3.02,83.56
					c-12.59-14.82-25.18-29.64-37.77-44.46c-2.31-2.72-6.92,0.45-4.59,3.19c14.02,16.5,28.04,33.01,42.06,49.51
					c-1.46,41.76-2.88,83.53-4.21,125.29C929.23,1052.91,934.8,1052.36,934.91,1048.81z"/>
			</g>
			<g id="XMLID_1_">
				<path id="XMLID_88_" class="st3" d="M797.36,602.13c5.5,10.23,8.61,21.73,14.65,31.63c6.4,10.49,14.9,21.84,25.05,28.85
					c9.18,6.34,19.57,10.77,28.74,17.18c33.7,23.57,52.38,63,59.78,102.61c4.92,26.35,9.9,47.18,29.68,66.58
					c15.36,15.07,33.39,27.62,45.91,45.4c14.37,20.4,19.18,44.28,17.08,67.94l-40.5,78.08c-47.32,40.64-121.45,46.72-172.12,5.89
					c-25.62-22.42-40.85-56.58-35.88-90.83c2.96-20.38,19.85-43.5,9.26-63.87c-9.11-17.54-29.94-25.2-44.02-38.06
					c-24.88-22.74-37.65-57.79-33.65-91.19c2.72-22.73,16.21-43.78,14.18-67.1c-1.88-21.52-14.77-40.02-24.64-58.58
					c-14.21-26.73-25.39-72.68,9.12-89.64c29.21-14.36,62.08,8.89,80.35,30.29C786.88,584.95,792.6,593.27,797.36,602.13z"/>
				<path id="XMLID_13_" class="st2" d="M776.03,670.23c1.24-17.06,3-34.07,5.4-51.04c0.73-5.14,8.6-3.43,7.88,1.68
					c-3.02,21.36-5.08,42.79-6.26,64.32c11.96,25.53,23.89,51.07,35.81,76.62c0.16,0.26,0.29,0.53,0.38,0.81
					c6.67,14.29,13.33,28.57,19.99,42.86c9.91-33.99,15.99-68.77,18.01-104.19c0.29-5.16,8.35-5.29,8.06-0.11
					c-2.24,39.24-9.2,77.79-20.94,115.31c16.96,36.44,33.87,72.9,50.75,109.37c8.44-26.74,16.89-53.47,25.33-80.21
					c1.55-4.91,9.44-3.27,7.88,1.68c-9.4,29.78-18.81,59.55-28.21,89.33c20.68,44.7,41.28,89.44,61.85,134.19l-4.65,8.97
					c-14.68-31.96-29.38-63.91-44.11-95.84c-0.05-0.02-0.1-0.02-0.15-0.04c-36.8-14.97-70.94-34.89-102.18-59.42
					c-4.07-3.2,1.42-9.1,5.48-5.91c28.24,22.17,58.98,40.32,91.85,54.53c-15.55-33.67-31.15-67.3-46.76-100.94
					c-0.38-0.04-0.77-0.12-1.17-0.29c-37.9-15.63-73.39-35.79-106.34-60.17c-4.16-3.08,1.34-8.97,5.48-5.91
					c30.18,22.33,62.68,40.87,97.1,55.71c-14.64-31.52-29.32-63.01-44.01-94.5c-25.99-12.45-50.83-26.88-74.5-43.33
					c-4.2-2.92-0.54-10.11,3.71-7.15c20.89,14.51,42.68,27.46,65.37,38.86c-14.64-31.36-29.32-62.7-44.02-94.04
					c-0.51-0.02-1.05-0.13-1.61-0.37c-17.19-7.69-33.99-16.13-50.42-25.33c-4.51-2.53-0.82-9.69,3.71-7.15
					c14.13,7.92,28.54,15.23,43.23,22.02c-9.85-20.99-19.68-41.99-29.55-62.97c-2.18-4.63,4.6-9,6.81-4.3
					C748.86,612.23,762.44,641.23,776.03,670.23z"/>
			</g>
		</g>
		<g>
			<g>
				<g>
					<path class="st5" d="M863.78,998.67H658.05c-0.67,0-1.31-0.17-1.86-0.48c-1.18-0.65-1.98-1.91-1.98-3.36v-27.72
						c0-1.02,0.4-1.94,1.04-2.63c0.7-0.74,1.69-1.21,2.8-1.21h205.72c1.06,0,2.02,0.43,2.72,1.12c0.69,0.69,1.12,1.65,1.12,2.72
						v27.72c0,1.06-0.43,2.02-1.12,2.72C865.8,998.24,864.84,998.67,863.78,998.67z"/>
					<path class="st0" d="M863.68,998.67H658.15c-1.02,0-1.94-0.38-2.64-1.02c-0.8-0.72-1.3-1.76-1.3-2.92v-1.62h213.4v1.62
						c0,0.83-0.26,1.6-0.69,2.23c-0.31,0.45-0.71,0.83-1.17,1.12C865.15,998.46,864.44,998.67,863.68,998.67z"/>
				</g>
				<g>
					<path class="st5" d="M848.38,963.5H642.66c-0.67,0-1.31-0.17-1.86-0.48c-1.18-0.65-1.98-1.91-1.98-3.36v-27.72
						c0-1.02,0.4-1.94,1.04-2.63c0.7-0.74,1.69-1.21,2.8-1.21h205.72c1.06,0,2.02,0.43,2.72,1.12c0.69,0.69,1.12,1.65,1.12,2.72
						v27.72c0,1.06-0.43,2.02-1.12,2.72C850.41,963.07,849.45,963.5,848.38,963.5z"/>
					<path class="st0" d="M848.28,963.5H642.76c-1.02,0-1.94-0.38-2.64-1.02c-0.8-0.72-1.3-1.76-1.3-2.92v-1.62h213.4v1.62
						c0,0.83-0.26,1.6-0.69,2.23c-0.31,0.45-0.71,0.83-1.17,1.12C849.76,963.28,849.05,963.5,848.28,963.5z"/>
				</g>
				<g>
					<path class="st5" d="M869.27,928.32H663.55c-0.67,0-1.31-0.17-1.86-0.48c-1.18-0.65-1.98-1.91-1.98-3.36v-27.72
						c0-1.02,0.4-1.94,1.04-2.63c0.7-0.74,1.69-1.21,2.8-1.21h205.72c1.06,0,2.02,0.43,2.72,1.12c0.69,0.69,1.12,1.66,1.12,2.72
						v27.72c0,1.06-0.43,2.02-1.12,2.72C871.29,927.89,870.33,928.32,869.27,928.32z"/>
					<path class="st0" d="M869.17,928.32H663.65c-1.02,0-1.94-0.38-2.64-1.02c-0.8-0.72-1.3-1.76-1.3-2.92v-1.62h213.4v1.62
						c0,0.83-0.26,1.6-0.69,2.23c-0.31,0.45-0.71,0.83-1.17,1.12C870.64,928.1,869.93,928.32,869.17,928.32z"/>
				</g>
				<g>
					<path class="st5" d="M879.96,1034.07H674.23c-0.67,0-1.31-0.17-1.86-0.48c-1.18-0.66-1.98-1.91-1.98-3.36v-27.72
						c0-1.02,0.4-1.94,1.04-2.63c0.7-0.74,1.69-1.21,2.8-1.21h205.72c1.06,0,2.02,0.43,2.72,1.12c0.7,0.7,1.12,1.66,1.12,2.72v27.72
						c0,1.06-0.43,2.02-1.12,2.72C881.98,1033.64,881.02,1034.07,879.96,1034.07z"/>
					<path class="st0" d="M879.86,1034.07H674.33c-1.02,0-1.94-0.38-2.64-1.02c-0.8-0.72-1.3-1.76-1.3-2.92v-1.62h213.4v1.62
						c0,0.83-0.26,1.6-0.69,2.23c-0.31,0.45-0.71,0.83-1.17,1.12C881.33,1033.86,880.62,1034.07,879.86,1034.07z"/>
				</g>
				<g>
					<path class="st5" d="M850.12,1069.47H644.4c-0.67,0-1.31-0.17-1.86-0.48c-1.18-0.65-1.98-1.91-1.98-3.36v-27.72
						c0-1.02,0.4-1.94,1.04-2.63c0.7-0.74,1.69-1.21,2.8-1.21h205.72c1.06,0,2.02,0.43,2.72,1.12c0.7,0.69,1.12,1.66,1.12,2.72
						v27.72c0,1.06-0.43,2.02-1.12,2.72C852.14,1069.04,851.18,1069.47,850.12,1069.47z"/>
					<path class="st0" d="M850.02,1069.47H644.5c-1.02,0-1.94-0.38-2.64-1.02c-0.8-0.72-1.3-1.76-1.3-2.92v-1.62h213.4v1.62
						c0,0.83-0.26,1.6-0.69,2.23c-0.31,0.45-0.71,0.83-1.17,1.12C851.49,1069.26,850.78,1069.47,850.02,1069.47z"/>
				</g>
				<g>
					<path class="st5" d="M863.78,1104.87H658.05c-0.67,0-1.31-0.17-1.86-0.48c-1.18-0.66-1.98-1.91-1.98-3.36v-27.72
						c0-1.02,0.4-1.94,1.04-2.63c0.7-0.74,1.69-1.21,2.8-1.21h205.72c1.06,0,2.02,0.43,2.72,1.12c0.69,0.69,1.12,1.66,1.12,2.72
						v27.72c0,1.06-0.43,2.02-1.12,2.72C865.8,1104.44,864.84,1104.87,863.78,1104.87z"/>
					<path class="st0" d="M863.68,1104.87H658.15c-1.02,0-1.94-0.38-2.64-1.02c-0.8-0.72-1.3-1.76-1.3-2.92v-1.62h213.4v1.62
						c0,0.83-0.26,1.6-0.69,2.23c-0.31,0.45-0.71,0.83-1.17,1.12C865.15,1104.66,864.44,1104.87,863.68,1104.87z"/>
				</g>
				<g>
					<path class="st5" d="M840.51,1140.27H634.79c-0.67,0-1.31-0.17-1.86-0.48c-1.18-0.65-1.98-1.91-1.98-3.36v-27.72
						c0-1.02,0.4-1.94,1.04-2.63c0.7-0.74,1.69-1.21,2.8-1.21h205.72c1.06,0,2.02,0.43,2.72,1.12c0.7,0.69,1.12,1.65,1.12,2.72
						v27.72c0,1.06-0.43,2.02-1.12,2.72C842.53,1139.84,841.57,1140.27,840.51,1140.27z"/>
					<path class="st0" d="M840.41,1140.27H634.89c-1.02,0-1.94-0.38-2.64-1.02c-0.8-0.72-1.3-1.76-1.3-2.92v-1.62h213.4v1.62
						c0,0.83-0.26,1.6-0.69,2.23c-0.31,0.45-0.71,0.83-1.17,1.12C841.89,1140.05,841.17,1140.27,840.41,1140.27z"/>
				</g>
				<g>
					<path class="st5" d="M850.12,1173.14H644.4c-0.67,0-1.31-0.17-1.86-0.48c-1.18-0.65-1.98-1.91-1.98-3.36v-27.72
						c0-1.02,0.4-1.94,1.04-2.63c0.7-0.74,1.69-1.21,2.8-1.21h205.72c1.06,0,2.02,0.43,2.72,1.12c0.7,0.7,1.12,1.66,1.12,2.72v27.72
						c0,1.06-0.43,2.02-1.12,2.72C852.14,1172.71,851.18,1173.14,850.12,1173.14z"/>
					<path class="st0" d="M850.02,1173.14H644.5c-1.02,0-1.94-0.38-2.64-1.02c-0.8-0.72-1.3-1.76-1.3-2.92v-1.62h213.4v1.62
						c0,0.83-0.26,1.6-0.69,2.23c-0.31,0.45-0.71,0.83-1.17,1.12C851.49,1172.92,850.78,1173.14,850.02,1173.14z"/>
				</g>
			</g>
			<g>
				<g>
					<path class="st5" d="M380.53,999.77h205.72c0.67,0,1.31-0.17,1.86-0.48c1.18-0.65,1.98-1.91,1.98-3.36v-27.72
						c0-1.02-0.4-1.94-1.04-2.63c-0.7-0.74-1.69-1.21-2.8-1.21H380.53c-1.06,0-2.02,0.43-2.72,1.12c-0.69,0.7-1.12,1.66-1.12,2.72
						v27.72c0,1.06,0.43,2.02,1.12,2.72C378.51,999.34,379.47,999.77,380.53,999.77z"/>
					<path class="st0" d="M380.63,999.77h205.52c1.02,0,1.94-0.38,2.64-1.02c0.8-0.72,1.3-1.76,1.3-2.92v-1.62h-213.4v1.62
						c0,0.83,0.26,1.6,0.69,2.23c0.31,0.45,0.71,0.83,1.17,1.12C379.16,999.56,379.87,999.77,380.63,999.77z"/>
				</g>
				<g>
					<path class="st5" d="M369.85,1035.17h205.72c0.67,0,1.31-0.17,1.86-0.48c1.18-0.65,1.98-1.91,1.98-3.36v-27.72
						c0-1.02-0.4-1.94-1.04-2.63c-0.7-0.74-1.69-1.21-2.8-1.21H369.85c-1.06,0-2.02,0.43-2.72,1.12c-0.7,0.69-1.12,1.65-1.12,2.72
						v27.72c0,1.06,0.43,2.02,1.12,2.72C367.83,1034.74,368.79,1035.17,369.85,1035.17z"/>
					<path class="st0" d="M369.95,1035.17h205.52c1.02,0,1.94-0.38,2.64-1.02c0.8-0.72,1.3-1.76,1.3-2.92v-1.62h-213.4v1.62
						c0,0.83,0.26,1.6,0.69,2.23c0.31,0.45,0.71,0.83,1.17,1.12C368.48,1034.96,369.19,1035.17,369.95,1035.17z"/>
				</g>
				<g>
					<path class="st5" d="M387.59,1070.57h205.72c0.67,0,1.31-0.17,1.86-0.48c1.18-0.65,1.98-1.91,1.98-3.36v-27.72
						c0-1.02-0.4-1.94-1.04-2.63c-0.7-0.74-1.69-1.21-2.8-1.21H387.59c-1.06,0-2.02,0.43-2.72,1.12c-0.69,0.69-1.12,1.66-1.12,2.72
						v27.72c0,1.06,0.43,2.02,1.12,2.72C385.57,1070.14,386.53,1070.57,387.59,1070.57z"/>
					<path class="st0" d="M387.69,1070.57h205.52c1.02,0,1.94-0.38,2.64-1.02c0.8-0.72,1.3-1.76,1.3-2.92v-1.62h-213.4v1.62
						c0,0.83,0.26,1.6,0.69,2.23c0.31,0.45,0.71,0.83,1.17,1.12C386.22,1070.36,386.93,1070.57,387.69,1070.57z"/>
				</g>
				<g>
					<path class="st5" d="M409.12,1105.97h205.72c0.67,0,1.31-0.17,1.86-0.48c1.18-0.65,1.98-1.91,1.98-3.36v-27.72
						c0-1.02-0.4-1.94-1.04-2.63c-0.7-0.74-1.69-1.21-2.8-1.21H409.12c-1.06,0-2.02,0.43-2.72,1.12c-0.7,0.69-1.12,1.66-1.12,2.72
						v27.72c0,1.06,0.43,2.02,1.12,2.72C407.1,1105.54,408.06,1105.97,409.12,1105.97z"/>
					<path class="st0" d="M409.22,1105.97h205.52c1.02,0,1.94-0.38,2.64-1.02c0.8-0.72,1.3-1.76,1.3-2.92v-1.62h-213.4v1.62
						c0,0.83,0.26,1.6,0.69,2.23c0.31,0.45,0.71,0.83,1.17,1.12C407.75,1105.75,408.46,1105.97,409.22,1105.97z"/>
				</g>
				<g>
					<path class="st5" d="M403.8,1141.37h205.72c0.67,0,1.31-0.17,1.86-0.48c1.18-0.65,1.98-1.91,1.98-3.36v-27.72
						c0-1.02-0.4-1.94-1.04-2.63c-0.7-0.74-1.69-1.21-2.8-1.21H403.8c-1.06,0-2.02,0.43-2.72,1.12c-0.7,0.69-1.12,1.66-1.12,2.72
						v27.72c0,1.06,0.43,2.02,1.12,2.72C401.78,1140.94,402.74,1141.37,403.8,1141.37z"/>
					<path class="st0" d="M403.9,1141.37h205.52c1.02,0,1.94-0.38,2.64-1.02c0.8-0.72,1.3-1.76,1.3-2.92v-1.62h-213.4v1.62
						c0,0.83,0.26,1.6,0.69,2.23c0.31,0.45,0.71,0.83,1.17,1.12C402.42,1141.15,403.14,1141.37,403.9,1141.37z"/>
				</g>
				<g>
					<path class="st5" d="M394.19,1174.24h205.72c0.67,0,1.31-0.17,1.86-0.48c1.18-0.65,1.98-1.91,1.98-3.36v-27.72
						c0-1.02-0.4-1.94-1.04-2.63c-0.7-0.74-1.69-1.21-2.8-1.21H394.19c-1.06,0-2.02,0.43-2.72,1.12c-0.69,0.69-1.12,1.65-1.12,2.72
						v27.72c0,1.06,0.43,2.02,1.12,2.72C392.17,1173.81,393.13,1174.24,394.19,1174.24z"/>
					<path class="st0" d="M394.29,1174.24h205.52c1.02,0,1.94-0.38,2.64-1.02c0.8-0.72,1.3-1.76,1.3-2.92v-1.62h-213.4v1.62
						c0,0.83,0.26,1.6,0.69,2.23c0.31,0.45,0.71,0.83,1.17,1.12C392.82,1174.02,393.53,1174.24,394.29,1174.24z"/>
				</g>
			</g>
		</g>
		<g>
			<g>
				<g>
					<linearGradient id="SVGID_1_" gradientUnits="userSpaceOnUse" x1="812.8066" y1="1151.3141" x2="1763.2346" y2="1136.6471">
						<stop  offset="0" style="stop-color:#B4F492"/>
						<stop  offset="0.2989" style="stop-color:#8AD292"/>
						<stop  offset="0.7738" style="stop-color:#4DA092"/>
						<stop  offset="1" style="stop-color:#358C92"/>
					</linearGradient>
					<rect x="1100.23" y="1115.1" class="st6" width="476.25" height="56.21"/>
				</g>
				<g>
					<rect x="1100.23" y="1108.42" class="st7" width="476.25" height="6.68"/>
				</g>
				<g>
					<line class="st8" x1="1100.23" y1="1123.59" x2="1576.48" y2="1123.59"/>
					<line class="st8" x1="1100.23" y1="1131.66" x2="1576.48" y2="1131.66"/>
					<line class="st8" x1="1100.23" y1="1139.73" x2="1576.48" y2="1139.73"/>
					<line class="st8" x1="1100.23" y1="1147.8" x2="1576.48" y2="1147.8"/>
					<line class="st8" x1="1100.23" y1="1155.87" x2="1576.48" y2="1155.87"/>
					<line class="st8" x1="1100.23" y1="1163.94" x2="1576.48" y2="1163.94"/>
				</g>
				<g>
					<linearGradient id="SVGID_2_" gradientUnits="userSpaceOnUse" x1="1275.1914" y1="1143.2039" x2="1416.9729" y2="1143.2039">
						<stop  offset="0" style="stop-color:#FCEE99"/>
						<stop  offset="0.6107" style="stop-color:#FDC182"/>
						<stop  offset="1" style="stop-color:#FEA975"/>
					</linearGradient>
					<rect x="1296.77" y="1115.1" class="st9" width="83.18" height="56.21"/>
				</g>
				<g>
					<linearGradient id="SVGID_3_" gradientUnits="userSpaceOnUse" x1="1291.771" y1="1111.9567" x2="1524.488" y2="1110.9789">
						<stop  offset="0" style="stop-color:#FCEE99"/>
						<stop  offset="0.6107" style="stop-color:#FDC182"/>
						<stop  offset="1" style="stop-color:#FEA975"/>
					</linearGradient>
					<rect x="1296.77" y="1108.42" class="st10" width="83.18" height="6.68"/>
				</g>
			</g>
			<g>
				<g>
					<linearGradient id="SVGID_4_" gradientUnits="userSpaceOnUse" x1="841.6111" y1="1088.2185" x2="1792.0392" y2="1073.5514">
						<stop  offset="0" style="stop-color:#B4F492"/>
						<stop  offset="0.2989" style="stop-color:#8AD292"/>
						<stop  offset="0.7738" style="stop-color:#4DA092"/>
						<stop  offset="1" style="stop-color:#358C92"/>
					</linearGradient>
					<rect x="1129.03" y="1052.01" class="st11" width="476.25" height="56.21"/>
				</g>
				<g>
					<rect x="1129.03" y="1045.33" class="st7" width="476.25" height="6.68"/>
				</g>
				<g>
					<line class="st8" x1="1129.03" y1="1060.49" x2="1605.28" y2="1060.49"/>
					<line class="st8" x1="1129.03" y1="1068.56" x2="1605.28" y2="1068.56"/>
					<line class="st8" x1="1129.03" y1="1076.63" x2="1605.28" y2="1076.63"/>
					<line class="st8" x1="1129.03" y1="1084.7" x2="1605.28" y2="1084.7"/>
					<line class="st8" x1="1129.03" y1="1092.77" x2="1605.28" y2="1092.77"/>
					<line class="st8" x1="1129.03" y1="1100.84" x2="1605.28" y2="1100.84"/>
				</g>
				<g>
					<linearGradient id="SVGID_5_" gradientUnits="userSpaceOnUse" x1="1303.996" y1="1080.1083" x2="1445.7775" y2="1080.1083">
						<stop  offset="0" style="stop-color:#FCEE99"/>
						<stop  offset="0.6107" style="stop-color:#FDC182"/>
						<stop  offset="1" style="stop-color:#FEA975"/>
					</linearGradient>
					<rect x="1325.57" y="1052.01" class="st12" width="83.18" height="56.21"/>
				</g>
				<g>
					<linearGradient id="SVGID_6_" gradientUnits="userSpaceOnUse" x1="1320.5754" y1="1048.8611" x2="1553.2926" y2="1047.8833">
						<stop  offset="0" style="stop-color:#FCEE99"/>
						<stop  offset="0.6107" style="stop-color:#FDC182"/>
						<stop  offset="1" style="stop-color:#FEA975"/>
					</linearGradient>
					<rect x="1325.57" y="1045.33" class="st13" width="83.18" height="6.68"/>
				</g>
			</g>
			<g>
				<g>
					<linearGradient id="SVGID_7_" gradientUnits="userSpaceOnUse" x1="816.9216" y1="1025.123" x2="1767.3496" y2="1010.4559">
						<stop  offset="0" style="stop-color:#B4F492"/>
						<stop  offset="0.2989" style="stop-color:#8AD292"/>
						<stop  offset="0.7738" style="stop-color:#4DA092"/>
						<stop  offset="1" style="stop-color:#358C92"/>
					</linearGradient>
					<rect x="1104.34" y="988.91" class="st14" width="476.25" height="56.21"/>
				</g>
				<g>
					<rect x="1104.34" y="982.23" class="st7" width="476.25" height="6.68"/>
				</g>
				<g>
					<line class="st8" x1="1104.34" y1="997.39" x2="1580.59" y2="997.39"/>
					<line class="st8" x1="1104.34" y1="1005.46" x2="1580.59" y2="1005.46"/>
					<line class="st8" x1="1104.34" y1="1013.53" x2="1580.59" y2="1013.53"/>
					<line class="st8" x1="1104.34" y1="1021.6" x2="1580.59" y2="1021.6"/>
					<line class="st8" x1="1104.34" y1="1029.67" x2="1580.59" y2="1029.67"/>
					<line class="st8" x1="1104.34" y1="1037.74" x2="1580.59" y2="1037.74"/>
				</g>
				<g>
					<linearGradient id="SVGID_8_" gradientUnits="userSpaceOnUse" x1="1279.3064" y1="1017.0128" x2="1421.0879" y2="1017.0128">
						<stop  offset="0" style="stop-color:#FCEE99"/>
						<stop  offset="0.6107" style="stop-color:#FDC182"/>
						<stop  offset="1" style="stop-color:#FEA975"/>
					</linearGradient>
					<rect x="1300.88" y="988.91" class="st15" width="83.18" height="56.21"/>
				</g>
				<g>
					<linearGradient id="SVGID_9_" gradientUnits="userSpaceOnUse" x1="1295.886" y1="985.7656" x2="1528.603" y2="984.7878">
						<stop  offset="0" style="stop-color:#FCEE99"/>
						<stop  offset="0.6107" style="stop-color:#FDC182"/>
						<stop  offset="1" style="stop-color:#FEA975"/>
					</linearGradient>
					<rect x="1300.88" y="982.23" class="st16" width="83.18" height="6.68"/>
				</g>
			</g>
			<g>
				<g>
					<linearGradient id="SVGID_10_" gradientUnits="userSpaceOnUse" x1="789.4886" y1="962.0274" x2="1739.9167" y2="947.3604">
						<stop  offset="0" style="stop-color:#B4F492"/>
						<stop  offset="0.2989" style="stop-color:#8AD292"/>
						<stop  offset="0.7738" style="stop-color:#4DA092"/>
						<stop  offset="1" style="stop-color:#358C92"/>
					</linearGradient>
					<rect x="1076.91" y="925.81" class="st17" width="476.25" height="56.21"/>
				</g>
				<g>
					<rect x="1076.91" y="919.13" class="st7" width="476.25" height="6.68"/>
				</g>
				<g>
					<line class="st8" x1="1076.91" y1="934.3" x2="1553.16" y2="934.3"/>
					<line class="st8" x1="1076.91" y1="942.37" x2="1553.16" y2="942.37"/>
					<line class="st8" x1="1076.91" y1="950.44" x2="1553.16" y2="950.44"/>
					<line class="st8" x1="1076.91" y1="958.51" x2="1553.16" y2="958.51"/>
					<line class="st8" x1="1076.91" y1="966.58" x2="1553.16" y2="966.58"/>
					<line class="st8" x1="1076.91" y1="974.65" x2="1553.16" y2="974.65"/>
				</g>
				<g>
					<linearGradient id="SVGID_11_" gradientUnits="userSpaceOnUse" x1="1251.8735" y1="953.9172" x2="1393.655" y2="953.9172">
						<stop  offset="0" style="stop-color:#FCEE99"/>
						<stop  offset="0.6107" style="stop-color:#FDC182"/>
						<stop  offset="1" style="stop-color:#FEA975"/>
					</linearGradient>
					<rect x="1273.45" y="925.81" class="st18" width="83.18" height="56.21"/>
				</g>
				<g>
					<linearGradient id="SVGID_12_" gradientUnits="userSpaceOnUse" x1="1268.4531" y1="922.67" x2="1501.1702" y2="921.6922">
						<stop  offset="0" style="stop-color:#FCEE99"/>
						<stop  offset="0.6107" style="stop-color:#FDC182"/>
						<stop  offset="1" style="stop-color:#FEA975"/>
					</linearGradient>
					<rect x="1273.45" y="919.13" class="st19" width="83.18" height="6.68"/>
				</g>
			</g>
			<g>
				<g>
					<linearGradient id="SVGID_13_" gradientUnits="userSpaceOnUse" x1="853.9559" y1="898.9319" x2="1804.3839" y2="884.2648">
						<stop  offset="0" style="stop-color:#B4F492"/>
						<stop  offset="0.2989" style="stop-color:#8AD292"/>
						<stop  offset="0.7738" style="stop-color:#4DA092"/>
						<stop  offset="1" style="stop-color:#358C92"/>
					</linearGradient>
					<rect x="1141.38" y="862.72" class="st20" width="476.25" height="56.21"/>
				</g>
				<g>
					<rect x="1141.38" y="856.04" class="st7" width="476.25" height="6.68"/>
				</g>
				<g>
					<line class="st8" x1="1141.38" y1="871.2" x2="1617.63" y2="871.2"/>
					<line class="st8" x1="1141.38" y1="879.27" x2="1617.63" y2="879.27"/>
					<line class="st8" x1="1141.38" y1="887.34" x2="1617.63" y2="887.34"/>
					<line class="st8" x1="1141.38" y1="895.41" x2="1617.63" y2="895.41"/>
					<line class="st8" x1="1141.38" y1="903.48" x2="1617.63" y2="903.48"/>
					<line class="st8" x1="1141.38" y1="911.55" x2="1617.63" y2="911.55"/>
				</g>
				<g>
					<linearGradient id="SVGID_14_" gradientUnits="userSpaceOnUse" x1="1316.3407" y1="890.8216" x2="1458.1222" y2="890.8216">
						<stop  offset="0" style="stop-color:#FCEE99"/>
						<stop  offset="0.6107" style="stop-color:#FDC182"/>
						<stop  offset="1" style="stop-color:#FEA975"/>
					</linearGradient>
					<rect x="1337.91" y="862.72" class="st21" width="83.18" height="56.21"/>
				</g>
				<g>
					<linearGradient id="SVGID_15_" gradientUnits="userSpaceOnUse" x1="1332.9203" y1="859.5745" x2="1565.6373" y2="858.5967">
						<stop  offset="0" style="stop-color:#FCEE99"/>
						<stop  offset="0.6107" style="stop-color:#FDC182"/>
						<stop  offset="1" style="stop-color:#FEA975"/>
					</linearGradient>
					<rect x="1337.91" y="856.04" class="st22" width="83.18" height="6.68"/>
				</g>
			</g>
			<g>
				<g>
					<linearGradient id="SVGID_16_" gradientUnits="userSpaceOnUse" x1="834.7529" y1="835.8364" x2="1785.1809" y2="821.1693">
						<stop  offset="0" style="stop-color:#B4F492"/>
						<stop  offset="0.2989" style="stop-color:#8AD292"/>
						<stop  offset="0.7738" style="stop-color:#4DA092"/>
						<stop  offset="1" style="stop-color:#358C92"/>
					</linearGradient>
					<rect x="1122.17" y="799.62" class="st23" width="476.25" height="56.21"/>
				</g>
				<g>
					<rect x="1122.17" y="792.94" class="st7" width="476.25" height="6.68"/>
				</g>
				<g>
					<line class="st8" x1="1122.17" y1="808.11" x2="1598.42" y2="808.11"/>
					<line class="st8" x1="1122.17" y1="816.18" x2="1598.42" y2="816.18"/>
					<line class="st8" x1="1122.17" y1="824.25" x2="1598.42" y2="824.25"/>
					<line class="st8" x1="1122.17" y1="832.32" x2="1598.42" y2="832.32"/>
					<line class="st8" x1="1122.17" y1="840.39" x2="1598.42" y2="840.39"/>
					<line class="st8" x1="1122.17" y1="848.46" x2="1598.42" y2="848.46"/>
				</g>
				<g>
					<linearGradient id="SVGID_17_" gradientUnits="userSpaceOnUse" x1="1297.1377" y1="827.7261" x2="1438.9192" y2="827.7261">
						<stop  offset="0" style="stop-color:#FCEE99"/>
						<stop  offset="0.6107" style="stop-color:#FDC182"/>
						<stop  offset="1" style="stop-color:#FEA975"/>
					</linearGradient>
					<rect x="1318.71" y="799.62" class="st24" width="83.18" height="56.21"/>
				</g>
				<g>
					<linearGradient id="SVGID_18_" gradientUnits="userSpaceOnUse" x1="1313.7173" y1="796.4789" x2="1546.4343" y2="795.5011">
						<stop  offset="0" style="stop-color:#FCEE99"/>
						<stop  offset="0.6107" style="stop-color:#FDC182"/>
						<stop  offset="1" style="stop-color:#FEA975"/>
					</linearGradient>
					<rect x="1318.71" y="792.94" class="st25" width="83.18" height="6.68"/>
				</g>
			</g>
		</g>
		<g>
			<path class="st26" d="M1383.37,376.44c-12.92-24.46-38.74-40.53-66.29-41.48c-0.41-0.03-0.82-0.04-1.23-0.04h-1.34
				c-0.4,0-0.8,0.01-1.2,0.04c-33.01,1.08-60.78,23.18-70.37,53.31c1.34-17.99,2.03-36.16,2.03-54.49H790.1
				c0,18.33,0.7,36.5,2.03,54.49c-9.59-30.13-37.36-52.23-70.37-53.31c-0.39-0.03-0.79-0.04-1.2-0.04h-1.34
				c-0.42,0-0.83,0.02-1.23,0.04c-27.55,0.95-53.36,17.02-66.29,41.48c-30.3,57.35,5.72,129.55,54.86,175.66l148.29,139.16
				c0.75,0.85,1.95,2.14,3.59,3.4c6.01,5.97,10.38,13.35,12.66,21.45c0.26,1.1,0.39,2.25,0.39,3.4c0,8.07-6.57,14.64-14.64,14.64
				c-4.48,0-7.65-1.91-9.52-3.52c-7.11-6.09-17.8-5.28-23.89,1.83c-6.09,7.1-5.28,17.8,1.83,23.89c8.78,7.54,20,11.69,31.59,11.69
				c26.76,0,48.53-21.77,48.53-48.53c0-1.75-0.11-3.5-0.3-5.24c19.28,22.7,41.63,42.72,66.42,59.38l0.26,0.13
				c12.99,9.91,19.93,23.72,20.84,37.32c-16.99,5.97-28.58,17.86-28.58,31.56c0,12.83,10.17,24.07,25.42,30.36
				c1.41,9.79,2.15,19.79,2.15,29.97c0,28.7-5.82,56.05-16.34,80.92v5.96c-42.94,12.44-74.76,43.25-80.32,80.49h245.15
				c-5.55-37.23-37.37-68.05-80.32-80.49v-5.96c-10.52-24.87-16.34-52.22-16.34-80.92c0-10.18,0.74-20.19,2.15-29.97
				c15.25-6.28,25.42-17.53,25.42-30.36c0-13.69-11.58-25.58-28.57-31.55c0.91-13.59,7.85-27.41,20.84-37.32l0.25-0.13
				c24.79-16.66,47.15-36.68,66.42-59.38c-0.19,1.74-0.3,3.48-0.3,5.24c0,26.76,21.77,48.53,48.53,48.53
				c11.59,0,22.81-4.15,31.59-11.69c7.1-6.09,7.92-16.79,1.83-23.89c-6.09-7.1-16.79-7.92-23.89-1.83c-1.87,1.6-5.04,3.52-9.52,3.52
				c-8.07,0-14.64-6.57-14.64-14.64c0-1.16,0.13-2.3,0.39-3.4c2.29-8.1,6.65-15.48,12.66-21.45c1.65-1.25,2.84-2.55,3.59-3.4
				l148.29-139.16C1377.65,505.99,1413.66,433.79,1383.37,376.44z M729.75,527.39c-38.47-36.1-69.92-93.78-48.09-135.12
				c7.43-14.06,22.38-23.21,38.24-23.46c23.19,0.36,41.94,19.34,41.94,42.61c0,10.71-3.99,20.95-11.23,28.83
				c-6.33,6.89-5.88,17.61,1.01,23.94c6.89,6.33,17.61,5.88,23.94-1.01c11.01-11.98,17.81-27,19.65-43
				c9.28,78.16,30.96,152.52,63.06,221.02l0.02-0.01c1.98,4.27,4.07,8.49,6.23,12.65L729.75,527.39z M1305.32,527.39l-134.76,126.47
				c2.16-4.17,4.25-8.38,6.23-12.65l0.02,0.01c32.1-68.51,53.78-142.86,63.06-221.02c1.83,16,8.63,31.02,19.65,43
				c6.33,6.89,17.05,7.34,23.94,1.01c6.89-6.33,7.34-17.05,1.01-23.94c-7.24-7.88-11.23-18.12-11.23-28.83
				c0-23.27,18.75-42.25,41.94-42.61c15.85,0.25,30.81,9.4,38.24,23.46C1375.24,433.61,1343.79,491.29,1305.32,527.39z"/>
			<g>
				<circle class="st27" cx="1017.53" cy="542.27" r="105.62"/>
				<polygon class="st28" points="1017.53,468.61 1034.07,519.51 1087.59,519.51 1044.29,550.97 1060.83,601.86 1017.53,570.41 
					974.24,601.86 990.77,550.97 947.48,519.51 1001,519.51 				"/>
			</g>
			<rect x="824.82" y="1070.35" class="st29" width="385.43" height="115.22"/>
			<rect x="912" y="1096.42" class="st28" width="211.07" height="63.1"/>
		</g>
		<g>
			<path class="st0" d="M695.8,962.29c0,0,77.68,26.66,80.73,106.93c3.05,80.27-54.62,102.94-54.62,102.94h-24.91L695.8,962.29z"/>
			<g>
				
					<ellipse transform="matrix(0.7071 -0.7071 0.7071 0.7071 -569.5214 766.3078)" class="st30" cx="640.25" cy="1070.63" rx="120.68" ry="120.68"/>
				
					<ellipse transform="matrix(0.7071 -0.7071 0.7071 0.7071 -569.5214 766.3078)" class="st26" cx="640.25" cy="1070.63" rx="97.65" ry="97.65"/>
				<path class="st28" d="M682.5,1095.54c0-16.38-8.45-28.56-36.71-36.59v-38.1c10.52,2.12,14.5,9.08,16.35,16.16h17.7
					c-1.25-11.85-9.29-27.75-34.05-30.21v-12.58h-11v12.4c-19.82,1.5-34.55,13.73-34.55,32.62c0,17.13,9.26,26.56,34.55,34.28v42.25
					c-9.53-1.73-16.93-7.89-19.13-18.44h-18.02c1.89,17.74,14.88,30.93,37.15,32.73v16.68h11v-16.68
					C668.45,1128.38,682.5,1116.34,682.5,1095.54z M618.13,1037.15c0-8.17,4.45-15.49,16.65-16.76v35.25
					C621.86,1051.01,618.13,1045.66,618.13,1037.15z M645.78,1116.02v-39.11c14.27,5.14,18.29,11.34,18.29,20.63
					C664.08,1108.46,657.98,1114.69,645.78,1116.02z"/>
				<path class="st31" d="M757.25,1099.19c-3.25,8.11-1.36,11.76-5.84,17.13L544.45,997.85c3.68-5.53,9.21-11.05,12.9-14.74
					c2.42-2.42,7.31-5.53,9.21-8.29l193.46,110.55C758.61,1088.41,759.1,1094.58,757.25,1099.19z"/>
				<path class="st31" d="M760.94,1070.63L577.61,967.45c5.53-3.68,12.9-6.45,20.27-10.13l161.22,92.12
					C760.02,1057.73,760.94,1061.41,760.94,1070.63z"/>
			</g>
		</g>
		<g>
			<g>
				<path class="st32" d="M1500.66,696.11l-1.14,1.14c-0.42,0.42-1.09,0.42-1.51,0l-8.28-8.28c-0.42-0.42-0.42-1.09,0-1.51
					l1.14-1.14c0.42-0.42,1.09-0.42,1.51,0l8.28,8.28C1501.08,695.01,1501.08,695.69,1500.66,696.11z"/>
				<path class="st32" d="M1522.49,717.94l-1.14,1.14c-0.42,0.42-1.09,0.42-1.51,0l-8.28-8.28c-0.42-0.42-0.42-1.09,0-1.51
					l1.14-1.14c0.42-0.42,1.09-0.42,1.51,0l8.28,8.28C1522.91,716.84,1522.91,717.52,1522.49,717.94z"/>
				<path class="st32" d="M1499.52,708.14l1.14,1.14c0.42,0.42,0.42,1.09,0,1.51l-8.28,8.28c-0.42,0.42-1.09,0.42-1.51,0l-1.14-1.14
					c-0.42-0.42-0.42-1.09,0-1.51l8.28-8.28C1498.43,707.73,1499.1,707.73,1499.52,708.14z"/>
				<path class="st32" d="M1521.35,686.31l1.14,1.14c0.42,0.42,0.42,1.09,0,1.51l-8.28,8.28c-0.42,0.42-1.09,0.42-1.51,0l-1.14-1.14
					c-0.42-0.42-0.42-1.09,0-1.51l8.28-8.28C1520.26,685.9,1520.93,685.9,1521.35,686.31z"/>
				<path class="st32" d="M1497.6,701.89v1.61c0,0.59-0.48,1.07-1.07,1.07h-11.71c-0.59,0-1.07-0.48-1.07-1.07v-1.61
					c0-0.59,0.48-1.07,1.07-1.07h11.71C1497.12,700.82,1497.6,701.3,1497.6,701.89z"/>
				<path class="st32" d="M1528.47,701.89v1.61c0,0.59-0.48,1.07-1.07,1.07h-11.71c-0.59,0-1.07-0.48-1.07-1.07v-1.61
					c0-0.59,0.48-1.07,1.07-1.07h11.71C1527.99,700.82,1528.47,701.3,1528.47,701.89z"/>
				<path class="st32" d="M1505.31,711.21h1.61c0.59,0,1.07,0.48,1.07,1.07v11.71c0,0.59-0.48,1.07-1.07,1.07h-1.61
					c-0.59,0-1.07-0.48-1.07-1.07v-11.71C1504.24,711.69,1504.72,711.21,1505.31,711.21z"/>
				<path class="st32" d="M1505.31,680.33h1.61c0.59,0,1.07,0.48,1.07,1.07v11.71c0,0.59-0.48,1.07-1.07,1.07h-1.61
					c-0.59,0-1.07-0.48-1.07-1.07V681.4C1504.24,680.81,1504.72,680.33,1505.31,680.33z"/>
			</g>
			<g>
				<path class="st32" d="M408.83,258.55l-1.14,1.14c-0.42,0.42-1.09,0.42-1.51,0l-8.28-8.28c-0.42-0.42-0.42-1.09,0-1.51l1.14-1.14
					c0.42-0.42,1.09-0.42,1.51,0l8.28,8.28C409.25,257.46,409.25,258.14,408.83,258.55z"/>
				<path class="st32" d="M430.66,280.38l-1.14,1.14c-0.42,0.42-1.09,0.42-1.51,0l-8.28-8.28c-0.42-0.42-0.42-1.09,0-1.51l1.14-1.14
					c0.42-0.42,1.09-0.42,1.51,0l8.28,8.28C431.08,279.29,431.08,279.97,430.66,280.38z"/>
				<path class="st32" d="M407.69,270.59l1.14,1.14c0.42,0.42,0.42,1.09,0,1.51l-8.28,8.28c-0.42,0.42-1.09,0.42-1.51,0l-1.14-1.14
					c-0.42-0.42-0.42-1.09,0-1.51l8.28-8.28C406.6,270.17,407.28,270.17,407.69,270.59z"/>
				<path class="st32" d="M429.52,248.76l1.14,1.14c0.42,0.42,0.42,1.09,0,1.51l-8.28,8.28c-0.42,0.42-1.09,0.42-1.51,0l-1.14-1.14
					c-0.42-0.42-0.42-1.09,0-1.51l8.28-8.28C428.43,248.34,429.11,248.34,429.52,248.76z"/>
				<path class="st32" d="M405.77,264.34v1.61c0,0.59-0.48,1.07-1.07,1.07h-11.71c-0.59,0-1.07-0.48-1.07-1.07v-1.61
					c0-0.59,0.48-1.07,1.07-1.07h11.71C405.29,263.27,405.77,263.75,405.77,264.34z"/>
				<path class="st32" d="M436.64,264.34v1.61c0,0.59-0.48,1.07-1.07,1.07h-11.71c-0.59,0-1.07-0.48-1.07-1.07v-1.61
					c0-0.59,0.48-1.07,1.07-1.07h11.71C436.16,263.27,436.64,263.75,436.64,264.34z"/>
				<path class="st32" d="M413.48,273.65h1.61c0.59,0,1.07,0.48,1.07,1.07v11.71c0,0.59-0.48,1.07-1.07,1.07h-1.61
					c-0.59,0-1.07-0.48-1.07-1.07v-11.71C412.41,274.13,412.89,273.65,413.48,273.65z"/>
				<path class="st32" d="M413.48,242.78h1.61c0.59,0,1.07,0.48,1.07,1.07v11.71c0,0.59-0.48,1.07-1.07,1.07h-1.61
					c-0.59,0-1.07-0.48-1.07-1.07v-11.71C412.41,243.26,412.89,242.78,413.48,242.78z"/>
			</g>
			<g>
				<path class="st32" d="M973.95,15.77l-1.14,1.14c-0.42,0.42-1.09,0.42-1.51,0l-8.28-8.28c-0.42-0.42-0.42-1.09,0-1.51l1.14-1.14
					c0.42-0.42,1.09-0.42,1.51,0l8.28,8.28C974.37,14.68,974.37,15.35,973.95,15.77z"/>
				<path class="st32" d="M995.78,37.6l-1.14,1.14c-0.42,0.42-1.09,0.42-1.51,0l-8.28-8.28c-0.42-0.42-0.42-1.09,0-1.51l1.14-1.14
					c0.42-0.42,1.09-0.42,1.51,0l8.28,8.28C996.2,36.51,996.2,37.18,995.78,37.6z"/>
				<path class="st32" d="M972.81,27.81l1.14,1.14c0.42,0.42,0.42,1.09,0,1.51l-8.28,8.28c-0.42,0.42-1.09,0.42-1.51,0l-1.14-1.14
					c-0.42-0.42-0.42-1.09,0-1.51l8.28-8.28C971.72,27.39,972.39,27.39,972.81,27.81z"/>
				<path class="st32" d="M994.64,5.98l1.14,1.14c0.42,0.42,0.42,1.09,0,1.51l-8.28,8.28c-0.42,0.42-1.09,0.42-1.51,0l-1.14-1.14
					c-0.42-0.42-0.42-1.09,0-1.51l8.28-8.28C993.55,5.56,994.22,5.56,994.64,5.98z"/>
				<path class="st32" d="M970.89,21.55v1.61c0,0.59-0.48,1.07-1.07,1.07h-11.71c-0.59,0-1.07-0.48-1.07-1.07v-1.61
					c0-0.59,0.48-1.07,1.07-1.07h11.71C970.41,20.49,970.89,20.97,970.89,21.55z"/>
				<path class="st32" d="M1001.76,21.55v1.61c0,0.59-0.48,1.07-1.07,1.07h-11.71c-0.59,0-1.07-0.48-1.07-1.07v-1.61
					c0-0.59,0.48-1.07,1.07-1.07h11.71C1001.28,20.49,1001.76,20.97,1001.76,21.55z"/>
				<path class="st32" d="M978.59,30.87h1.61c0.59,0,1.07,0.48,1.07,1.07v11.71c0,0.59-0.48,1.07-1.07,1.07h-1.61
					c-0.59,0-1.07-0.48-1.07-1.07V31.94C977.53,31.35,978,30.87,978.59,30.87z"/>
				<path class="st32" d="M978.59,0h1.61c0.59,0,1.07,0.48,1.07,1.07v11.71c0,0.59-0.48,1.07-1.07,1.07h-1.61
					c-0.59,0-1.07-0.48-1.07-1.07V1.07C977.53,0.48,978,0,978.59,0z"/>
			</g>
			<g>
				<path class="st32" d="M892.93,201.89l-0.71,0.71c-0.23,0.23-0.61,0.23-0.84,0l-4.91-4.91c-0.23-0.23-0.23-0.61,0-0.84l0.71-0.71
					c0.23-0.23,0.61-0.23,0.84,0l4.91,4.91C893.16,201.28,893.16,201.66,892.93,201.89z"/>
				<path class="st32" d="M905.75,214.71l-0.71,0.71c-0.23,0.23-0.61,0.23-0.84,0l-4.91-4.91c-0.23-0.23-0.23-0.61,0-0.84l0.71-0.71
					c0.23-0.23,0.61-0.23,0.84,0l4.91,4.91C905.98,214.1,905.98,214.48,905.75,214.71z"/>
				<path class="st32" d="M892.21,208.96l0.71,0.71c0.23,0.23,0.23,0.61,0,0.84l-4.91,4.91c-0.23,0.23-0.61,0.23-0.84,0l-0.71-0.71
					c-0.23-0.23-0.23-0.61,0-0.84l4.91-4.91C891.6,208.73,891.98,208.73,892.21,208.96z"/>
				<path class="st32" d="M905.04,196.14l0.71,0.71c0.23,0.23,0.23,0.61,0,0.84l-4.91,4.91c-0.23,0.23-0.61,0.23-0.84,0l-0.71-0.71
					c-0.23-0.23-0.23-0.61,0-0.84l4.91-4.91C904.43,195.9,904.81,195.9,905.04,196.14z"/>
				<path class="st32" d="M891.11,205.28v1.01c0,0.33-0.27,0.6-0.6,0.6h-6.94c-0.33,0-0.6-0.27-0.6-0.6v-1.01
					c0-0.33,0.27-0.6,0.6-0.6h6.94C890.84,204.68,891.11,204.95,891.11,205.28z"/>
				<path class="st32" d="M909.24,205.28v1.01c0,0.33-0.27,0.6-0.6,0.6h-6.94c-0.33,0-0.6-0.27-0.6-0.6v-1.01
					c0-0.33,0.27-0.6,0.6-0.6h6.94C908.98,204.68,909.24,204.95,909.24,205.28z"/>
				<path class="st32" d="M895.6,210.78h1.01c0.33,0,0.6,0.27,0.6,0.6v6.94c0,0.33-0.27,0.6-0.6,0.6h-1.01c-0.33,0-0.6-0.27-0.6-0.6
					v-6.94C895.01,211.05,895.27,210.78,895.6,210.78z"/>
				<path class="st32" d="M895.6,192.65h1.01c0.33,0,0.6,0.27,0.6,0.6v6.94c0,0.33-0.27,0.6-0.6,0.6h-1.01c-0.33,0-0.6-0.27-0.6-0.6
					v-6.94C895.01,192.91,895.27,192.65,895.6,192.65z"/>
			</g>
			<g>
				<path class="st32" d="M1552.69,285.56l-0.71,0.71c-0.23,0.23-0.61,0.23-0.84,0l-4.91-4.91c-0.23-0.23-0.23-0.61,0-0.84
					l0.71-0.71c0.23-0.23,0.61-0.23,0.84,0l4.91,4.91C1552.92,284.95,1552.92,285.33,1552.69,285.56z"/>
				<path class="st32" d="M1565.51,298.38l-0.71,0.71c-0.23,0.23-0.61,0.23-0.84,0l-4.91-4.91c-0.23-0.23-0.23-0.61,0-0.84
					l0.71-0.71c0.23-0.23,0.61-0.23,0.84,0l4.91,4.91C1565.74,297.77,1565.74,298.15,1565.51,298.38z"/>
				<path class="st32" d="M1551.97,292.63l0.71,0.71c0.23,0.23,0.23,0.61,0,0.84l-4.91,4.91c-0.23,0.23-0.61,0.23-0.84,0l-0.71-0.71
					c-0.23-0.23-0.23-0.61,0-0.84l4.91-4.91C1551.36,292.4,1551.74,292.4,1551.97,292.63z"/>
				<path class="st32" d="M1564.8,279.81l0.71,0.71c0.23,0.23,0.23,0.61,0,0.84l-4.91,4.91c-0.23,0.23-0.61,0.23-0.84,0l-0.71-0.71
					c-0.23-0.23-0.23-0.61,0-0.84l4.91-4.91C1564.19,279.57,1564.57,279.57,1564.8,279.81z"/>
				<path class="st32" d="M1550.87,288.95v1.01c0,0.33-0.27,0.6-0.6,0.6h-6.94c-0.33,0-0.6-0.27-0.6-0.6v-1.01
					c0-0.33,0.27-0.6,0.6-0.6h6.94C1550.6,288.35,1550.87,288.62,1550.87,288.95z"/>
				<path class="st32" d="M1569,288.95v1.01c0,0.33-0.27,0.6-0.6,0.6h-6.94c-0.33,0-0.6-0.27-0.6-0.6v-1.01c0-0.33,0.27-0.6,0.6-0.6
					h6.94C1568.74,288.35,1569,288.62,1569,288.95z"/>
				<path class="st32" d="M1555.36,294.45h1.01c0.33,0,0.6,0.27,0.6,0.6l0,6.94c0,0.33-0.27,0.6-0.6,0.6h-1.01
					c-0.33,0-0.6-0.27-0.6-0.6v-6.94C1554.77,294.72,1555.03,294.45,1555.36,294.45z"/>
				<path class="st32" d="M1555.36,276.32h1.01c0.33,0,0.6,0.27,0.6,0.6v6.94c0,0.33-0.27,0.6-0.6,0.6h-1.01
					c-0.33,0-0.6-0.27-0.6-0.6v-6.94C1554.77,276.58,1555.03,276.32,1555.36,276.32z"/>
			</g>
			<g>
				<path class="st32" d="M1405.92,539.31l-0.71,0.71c-0.23,0.23-0.61,0.23-0.84,0l-4.91-4.91c-0.23-0.23-0.23-0.61,0-0.84
					l0.71-0.71c0.23-0.23,0.61-0.23,0.84,0l4.91,4.91C1406.15,538.7,1406.15,539.08,1405.92,539.31z"/>
				<path class="st32" d="M1418.75,552.14l-0.71,0.71c-0.23,0.23-0.61,0.23-0.84,0l-4.91-4.91c-0.23-0.23-0.23-0.61,0-0.84
					l0.71-0.71c0.23-0.23,0.61-0.23,0.84,0l4.91,4.91C1418.98,551.53,1418.98,551.91,1418.75,552.14z"/>
				<path class="st32" d="M1405.21,546.39l0.71,0.71c0.23,0.23,0.23,0.61,0,0.84l-4.91,4.91c-0.23,0.23-0.61,0.23-0.84,0l-0.71-0.71
					c-0.23-0.23-0.23-0.61,0-0.84l4.91-4.91C1404.6,546.15,1404.98,546.15,1405.21,546.39z"/>
				<path class="st32" d="M1418.03,533.56l0.71,0.71c0.23,0.23,0.23,0.61,0,0.84l-4.91,4.91c-0.23,0.23-0.61,0.23-0.84,0l-0.71-0.71
					c-0.23-0.23-0.23-0.61,0-0.84l4.91-4.91C1417.42,533.33,1417.8,533.33,1418.03,533.56z"/>
				<path class="st32" d="M1404.1,542.7v1.01c0,0.33-0.27,0.6-0.6,0.6h-6.94c-0.33,0-0.6-0.27-0.6-0.6v-1.01
					c0-0.33,0.27-0.6,0.6-0.6h6.94C1403.83,542.11,1404.1,542.37,1404.1,542.7z"/>
				<path class="st32" d="M1422.24,542.7v1.01c0,0.33-0.27,0.6-0.6,0.6h-6.94c-0.33,0-0.6-0.27-0.6-0.6v-1.01
					c0-0.33,0.27-0.6,0.6-0.6h6.94C1421.97,542.11,1422.24,542.37,1422.24,542.7z"/>
				<path class="st32" d="M1408.6,548.21h1.01c0.33,0,0.6,0.27,0.6,0.6v6.94c0,0.33-0.27,0.6-0.6,0.6h-1.01
					c-0.33,0-0.6-0.27-0.6-0.6v-6.94C1408,548.47,1408.27,548.21,1408.6,548.21z"/>
				<path class="st32" d="M1408.6,530.07h1.01c0.33,0,0.6,0.27,0.6,0.6v6.94c0,0.33-0.27,0.6-0.6,0.6h-1.01
					c-0.33,0-0.6-0.27-0.6-0.6v-6.94C1408,530.34,1408.27,530.07,1408.6,530.07z"/>
			</g>
			<g>
				<path class="st32" d="M541.84,543.96l-0.71,0.71c-0.23,0.23-0.61,0.23-0.84,0l-4.91-4.91c-0.23-0.23-0.23-0.61,0-0.84l0.71-0.71
					c0.23-0.23,0.61-0.23,0.84,0l4.91,4.91C542.07,543.35,542.07,543.73,541.84,543.96z"/>
				<path class="st32" d="M554.66,556.79l-0.71,0.71c-0.23,0.23-0.61,0.23-0.84,0l-4.91-4.91c-0.23-0.23-0.23-0.61,0-0.84l0.71-0.71
					c0.23-0.23,0.61-0.23,0.84,0l4.91,4.91C554.89,556.18,554.89,556.56,554.66,556.79z"/>
				<path class="st32" d="M541.12,551.04l0.71,0.71c0.23,0.23,0.23,0.61,0,0.84l-4.91,4.91c-0.23,0.23-0.61,0.23-0.84,0l-0.71-0.71
					c-0.23-0.23-0.23-0.61,0-0.84l4.91-4.91C540.51,550.8,540.89,550.8,541.12,551.04z"/>
				<path class="st32" d="M553.95,538.21l0.71,0.71c0.23,0.23,0.23,0.61,0,0.84l-4.91,4.91c-0.23,0.23-0.61,0.23-0.84,0l-0.71-0.71
					c-0.23-0.23-0.23-0.61,0-0.84l4.91-4.91C553.34,537.98,553.72,537.98,553.95,538.21z"/>
				<path class="st32" d="M540.02,547.35v1.01c0,0.33-0.27,0.6-0.6,0.6h-6.94c-0.33,0-0.6-0.27-0.6-0.6v-1.01
					c0-0.33,0.27-0.6,0.6-0.6h6.94C539.75,546.76,540.02,547.02,540.02,547.35z"/>
				<path class="st32" d="M558.15,547.35v1.01c0,0.33-0.27,0.6-0.6,0.6h-6.94c-0.33,0-0.6-0.27-0.6-0.6v-1.01
					c0-0.33,0.27-0.6,0.6-0.6h6.94C557.89,546.76,558.15,547.02,558.15,547.35z"/>
				<path class="st32" d="M544.51,552.86h1.01c0.33,0,0.6,0.27,0.6,0.6v6.94c0,0.33-0.27,0.6-0.6,0.6h-1.01
					c-0.33,0-0.6-0.27-0.6-0.6v-6.94C543.92,553.12,544.18,552.86,544.51,552.86z"/>
				<path class="st32" d="M544.51,534.72h1.01c0.33,0,0.6,0.27,0.6,0.6v6.94c0,0.33-0.27,0.6-0.6,0.6h-1.01
					c-0.33,0-0.6-0.27-0.6-0.6v-6.94C543.92,534.99,544.18,534.72,544.51,534.72z"/>
			</g>
			<g>
				<path class="st32" d="M629.57,64.73l-0.71,0.71c-0.23,0.23-0.61,0.23-0.84,0l-4.91-4.91c-0.23-0.23-0.23-0.61,0-0.84l0.71-0.71
					c0.23-0.23,0.61-0.23,0.84,0l4.91,4.91C629.8,64.11,629.8,64.49,629.57,64.73z"/>
				<path class="st32" d="M642.4,77.55l-0.71,0.71c-0.23,0.23-0.61,0.23-0.84,0l-4.91-4.91c-0.23-0.23-0.23-0.61,0-0.84l0.71-0.71
					c0.23-0.23,0.61-0.23,0.84,0l4.91,4.91C642.63,76.94,642.63,77.32,642.4,77.55z"/>
				<path class="st32" d="M628.86,71.8l0.71,0.71c0.23,0.23,0.23,0.61,0,0.84l-4.91,4.91c-0.23,0.23-0.61,0.23-0.84,0l-0.71-0.71
					c-0.23-0.23-0.23-0.61,0-0.84l4.91-4.91C628.25,71.56,628.63,71.56,628.86,71.8z"/>
				<path class="st32" d="M641.68,58.97l0.71,0.71c0.23,0.23,0.23,0.61,0,0.84l-4.91,4.91c-0.23,0.23-0.61,0.23-0.84,0l-0.71-0.71
					c-0.23-0.23-0.23-0.61,0-0.84l4.91-4.91C641.07,58.74,641.45,58.74,641.68,58.97z"/>
				<path class="st32" d="M627.75,68.11v1.01c0,0.33-0.27,0.6-0.6,0.6h-6.94c-0.33,0-0.6-0.27-0.6-0.6v-1.01
					c0-0.33,0.27-0.6,0.6-0.6h6.94C627.48,67.52,627.75,67.78,627.75,68.11z"/>
				<path class="st32" d="M645.89,68.11v1.01c0,0.33-0.27,0.6-0.6,0.6h-6.94c-0.33,0-0.6-0.27-0.6-0.6v-1.01
					c0-0.33,0.27-0.6,0.6-0.6h6.94C645.62,67.52,645.89,67.78,645.89,68.11z"/>
				<path class="st32" d="M632.25,73.62h1.01c0.33,0,0.6,0.27,0.6,0.6v6.94c0,0.33-0.27,0.6-0.6,0.6h-1.01c-0.33,0-0.6-0.27-0.6-0.6
					v-6.94C631.65,73.89,631.92,73.62,632.25,73.62z"/>
				<path class="st32" d="M632.25,55.48h1.01c0.33,0,0.6,0.27,0.6,0.6v6.94c0,0.33-0.27,0.6-0.6,0.6h-1.01c-0.33,0-0.6-0.27-0.6-0.6
					v-6.94C631.65,55.75,631.92,55.48,632.25,55.48z"/>
			</g>
			<g>
				<path class="st32" d="M1322.25,133.31l-0.71,0.71c-0.23,0.23-0.61,0.23-0.84,0l-4.91-4.91c-0.23-0.23-0.23-0.61,0-0.84
					l0.71-0.71c0.23-0.23,0.61-0.23,0.84,0l4.91,4.91C1322.48,132.7,1322.48,133.07,1322.25,133.31z"/>
				<path class="st32" d="M1335.08,146.13l-0.71,0.71c-0.23,0.23-0.61,0.23-0.84,0l-4.91-4.91c-0.23-0.23-0.23-0.61,0-0.84
					l0.71-0.71c0.23-0.23,0.61-0.23,0.84,0l4.91,4.91C1335.31,145.52,1335.31,145.9,1335.08,146.13z"/>
				<path class="st32" d="M1321.54,140.38l0.71,0.71c0.23,0.23,0.23,0.61,0,0.84l-4.91,4.91c-0.23,0.23-0.61,0.23-0.84,0l-0.71-0.71
					c-0.23-0.23-0.23-0.61,0-0.84l4.91-4.91C1320.93,140.15,1321.31,140.15,1321.54,140.38z"/>
				<path class="st32" d="M1334.36,127.56l0.71,0.71c0.23,0.23,0.23,0.61,0,0.84l-4.91,4.91c-0.23,0.23-0.61,0.23-0.84,0l-0.71-0.71
					c-0.23-0.23-0.23-0.61,0-0.84l4.91-4.91C1333.75,127.32,1334.13,127.32,1334.36,127.56z"/>
				<path class="st32" d="M1320.43,136.7v1.01c0,0.33-0.27,0.6-0.6,0.6h-6.94c-0.33,0-0.6-0.27-0.6-0.6v-1.01
					c0-0.33,0.27-0.6,0.6-0.6h6.94C1320.16,136.1,1320.43,136.37,1320.43,136.7z"/>
				<path class="st32" d="M1338.57,136.7v1.01c0,0.33-0.27,0.6-0.6,0.6h-6.94c-0.33,0-0.6-0.27-0.6-0.6v-1.01
					c0-0.33,0.27-0.6,0.6-0.6h6.94C1338.3,136.1,1338.57,136.37,1338.57,136.7z"/>
				<path class="st32" d="M1324.93,142.2h1.01c0.33,0,0.6,0.27,0.6,0.6v6.94c0,0.33-0.27,0.6-0.6,0.6h-1.01
					c-0.33,0-0.6-0.27-0.6-0.6v-6.94C1324.33,142.47,1324.6,142.2,1324.93,142.2z"/>
				<path class="st32" d="M1324.93,124.06h1.01c0.33,0,0.6,0.27,0.6,0.6v6.94c0,0.33-0.27,0.6-0.6,0.6h-1.01
					c-0.33,0-0.6-0.27-0.6-0.6v-6.94C1324.33,124.33,1324.6,124.06,1324.93,124.06z"/>
			</g>
		</g>
		<g>
			<g>
				<linearGradient id="SVGID_19_" gradientUnits="userSpaceOnUse" x1="1139.3406" y1="185.0197" x2="1171.0771" y2="185.0197">
					<stop  offset="0" style="stop-color:#FCEE99"/>
					<stop  offset="0.4535" style="stop-color:#FDD782"/>
					<stop  offset="1" style="stop-color:#FEBF6B"/>
				</linearGradient>
				<path class="st33" d="M1155.43,200.89l-3.39-6c-1.54-2.73-3.83-4.95-6.6-6.42l-6.1-3.22l6-3.39c2.73-1.54,4.95-3.83,6.42-6.6
					l3.22-6.1l3.39,6c1.54,2.73,3.83,4.95,6.6,6.42l6.1,3.23l-6,3.39c-2.73,1.54-4.95,3.83-6.42,6.6L1155.43,200.89z"/>
				<linearGradient id="SVGID_20_" gradientUnits="userSpaceOnUse" x1="1166.4812" y1="205.6245" x2="1208.5796" y2="205.6245">
					<stop  offset="0" style="stop-color:#FCEE99"/>
					<stop  offset="0.4535" style="stop-color:#FDD782"/>
					<stop  offset="1" style="stop-color:#FEBF6B"/>
				</linearGradient>
				<path class="st34" d="M1187.82,226.67l-4.5-7.96c-2.04-3.62-5.08-6.57-8.75-8.51l-8.09-4.28l7.96-4.5
					c3.62-2.04,6.57-5.08,8.51-8.75l4.28-8.09l4.5,7.96c2.04,3.62,5.08,6.57,8.75,8.51l8.09,4.28l-7.96,4.5
					c-3.62,2.04-6.57,5.08-8.51,8.75L1187.82,226.67z"/>
				<linearGradient id="SVGID_21_" gradientUnits="userSpaceOnUse" x1="1198.9038" y1="174.7941" x2="1218.5334" y2="174.7941">
					<stop  offset="0" style="stop-color:#FCEE99"/>
					<stop  offset="0.4535" style="stop-color:#FDD782"/>
					<stop  offset="1" style="stop-color:#FEBF6B"/>
				</linearGradient>
				<path class="st35" d="M1208.85,184.61l-2.1-3.71c-0.95-1.69-2.37-3.06-4.08-3.97l-3.77-1.99l3.71-2.1
					c1.69-0.95,3.06-2.37,3.97-4.08l1.99-3.77l2.1,3.71c0.95,1.69,2.37,3.06,4.08,3.97l3.77,1.99l-3.71,2.1
					c-1.69,0.95-3.06,2.37-3.97,4.08L1208.85,184.61z"/>
			</g>
			<g>
				
					<linearGradient id="SVGID_22_" gradientUnits="userSpaceOnUse" x1="708.9182" y1="1111.2534" x2="747.1774" y2="1111.2534" gradientTransform="matrix(1 0 0 -1 0 1376.611)">
					<stop  offset="0" style="stop-color:#FCEE99"/>
					<stop  offset="0.4535" style="stop-color:#FDD782"/>
					<stop  offset="1" style="stop-color:#FEBF6B"/>
				</linearGradient>
				<path class="st36" d="M728.31,246.23l-4.09,7.24c-1.86,3.29-4.62,5.97-7.96,7.74l-7.35,3.89l7.24,4.09
					c3.29,1.86,5.97,4.62,7.74,7.96l3.89,7.35l4.09-7.24c1.86-3.29,4.62-5.97,7.96-7.74l7.35-3.89l-7.24-4.09
					c-3.29-1.86-5.97-4.62-7.74-7.96L728.31,246.23z"/>
				
					<linearGradient id="SVGID_23_" gradientUnits="userSpaceOnUse" x1="741.6369" y1="1136.0929" x2="792.3876" y2="1136.0929" gradientTransform="matrix(1 0 0 -1 0 1376.611)">
					<stop  offset="0" style="stop-color:#FCEE99"/>
					<stop  offset="0.4535" style="stop-color:#FDD782"/>
					<stop  offset="1" style="stop-color:#FEBF6B"/>
				</linearGradient>
				<path class="st37" d="M767.36,215.14l-5.43,9.6c-2.46,4.36-6.13,7.92-10.55,10.26l-9.75,5.16l9.6,5.43
					c4.36,2.46,7.92,6.13,10.26,10.55l5.16,9.75l5.43-9.6c2.46-4.36,6.13-7.92,10.55-10.26l9.75-5.16l-9.6-5.43
					c-4.36-2.46-7.92-6.13-10.26-10.55L767.36,215.14z"/>
				
					<linearGradient id="SVGID_24_" gradientUnits="userSpaceOnUse" x1="780.7232" y1="1098.9261" x2="804.3873" y2="1098.9261" gradientTransform="matrix(1 0 0 -1 0 1376.611)">
					<stop  offset="0" style="stop-color:#FCEE99"/>
					<stop  offset="0.4535" style="stop-color:#FDD782"/>
					<stop  offset="1" style="stop-color:#FEBF6B"/>
				</linearGradient>
				<path class="st38" d="M792.72,265.85l-2.53,4.48c-1.15,2.03-2.86,3.69-4.92,4.79l-4.55,2.4l4.48,2.53
					c2.03,1.15,3.69,2.86,4.79,4.92l2.4,4.55l2.53-4.48c1.15-2.03,2.86-3.69,4.92-4.79l4.55-2.4l-4.48-2.53
					c-2.03-1.15-3.69-2.86-4.79-4.92L792.72,265.85z"/>
			</g>
			<g>
				
					<linearGradient id="SVGID_25_" gradientUnits="userSpaceOnUse" x1="1437.0787" y1="-111.6632" x2="1468.8147" y2="-111.6632" gradientTransform="matrix(-0.0209 -0.9998 -0.9998 0.0209 1245.0319 2132.9653)">
					<stop  offset="0" style="stop-color:#FCEE99"/>
					<stop  offset="0.4535" style="stop-color:#FDD782"/>
					<stop  offset="1" style="stop-color:#FEBF6B"/>
				</linearGradient>
				<path class="st39" d="M1310.44,678.09l6.07,3.27c2.76,1.48,5.03,3.73,6.56,6.46l3.35,6.03l3.27-6.07
					c1.48-2.76,3.73-5.03,6.46-6.56l6.03-3.35l-6.07-3.27c-2.76-1.48-5.03-3.73-6.56-6.46l-3.35-6.03l-3.27,6.07
					c-1.48,2.76-3.73,5.03-6.46,6.56L1310.44,678.09z"/>
				
					<linearGradient id="SVGID_26_" gradientUnits="userSpaceOnUse" x1="1464.2181" y1="-91.058" x2="1506.3159" y2="-91.058" gradientTransform="matrix(-0.0209 -0.9998 -0.9998 0.0209 1245.0319 2132.9653)">
					<stop  offset="0" style="stop-color:#FCEE99"/>
					<stop  offset="0.4535" style="stop-color:#FDD782"/>
					<stop  offset="1" style="stop-color:#FEBF6B"/>
				</linearGradient>
				<path class="st40" d="M1283.98,646.24l8.06,4.33c3.66,1.97,6.68,4.94,8.7,8.57l4.45,8l4.33-8.06c1.97-3.66,4.94-6.68,8.57-8.7
					l8-4.45l-8.06-4.33c-3.66-1.97-6.68-4.94-8.7-8.57l-4.45-8l-4.33,8.06c-1.97,3.66-4.94,6.68-8.57,8.7L1283.98,646.24z"/>
				
					<linearGradient id="SVGID_27_" gradientUnits="userSpaceOnUse" x1="1496.6411" y1="-121.8871" x2="1516.2705" y2="-121.8871" gradientTransform="matrix(-0.0209 -0.9998 -0.9998 0.0209 1245.0319 2132.9653)">
					<stop  offset="0" style="stop-color:#FCEE99"/>
					<stop  offset="0.4535" style="stop-color:#FDD782"/>
					<stop  offset="1" style="stop-color:#FEBF6B"/>
				</linearGradient>
				<path class="st41" d="M1325.59,624.33l3.76,2.02c1.71,0.92,3.11,2.3,4.05,4l2.07,3.73l2.02-3.76c0.92-1.71,2.3-3.11,4-4.05
					l3.73-2.07l-3.76-2.02c-1.71-0.92-3.11-2.3-4.05-4l-2.07-3.73l-2.02,3.76c-0.92,1.71-2.3,3.11-4,4.05L1325.59,624.33z"/>
			</g>
		</g>
	</g>
	<g>
		<path class="st32" d="M408.76,730.63l-1.14,1.14c-0.42,0.42-1.09,0.42-1.51,0l-8.28-8.28c-0.42-0.42-0.42-1.09,0-1.51l1.14-1.14
			c0.42-0.42,1.09-0.42,1.51,0l8.28,8.28C409.17,729.54,409.17,730.21,408.76,730.63z"/>
		<path class="st32" d="M430.59,752.46l-1.14,1.14c-0.42,0.42-1.09,0.42-1.51,0l-8.28-8.28c-0.42-0.42-0.42-1.09,0-1.51l1.14-1.14
			c0.42-0.42,1.09-0.42,1.51,0l8.28,8.28C431,751.37,431,752.04,430.59,752.46z"/>
		<path class="st32" d="M407.62,742.67l1.14,1.14c0.42,0.42,0.42,1.09,0,1.51l-8.28,8.28c-0.42,0.42-1.09,0.42-1.51,0l-1.14-1.14
			c-0.42-0.42-0.42-1.09,0-1.51l8.28-8.28C406.53,742.25,407.2,742.25,407.62,742.67z"/>
		<path class="st32" d="M429.45,720.84l1.14,1.14c0.42,0.42,0.42,1.09,0,1.51l-8.28,8.28c-0.42,0.42-1.09,0.42-1.51,0l-1.14-1.14
			c-0.42-0.42-0.42-1.09,0-1.51l8.28-8.28C428.36,720.42,429.03,720.42,429.45,720.84z"/>
		<path class="st32" d="M405.7,736.41v1.61c0,0.59-0.48,1.07-1.07,1.07h-11.71c-0.59,0-1.07-0.48-1.07-1.07v-1.61
			c0-0.59,0.48-1.07,1.07-1.07h11.71C405.22,735.34,405.7,735.82,405.7,736.41z"/>
		<path class="st32" d="M436.57,736.41v1.61c0,0.59-0.48,1.07-1.07,1.07h-11.71c-0.59,0-1.07-0.48-1.07-1.07v-1.61
			c0-0.59,0.48-1.07,1.07-1.07h11.71C436.09,735.34,436.57,735.82,436.57,736.41z"/>
		<path class="st32" d="M413.4,745.73h1.61c0.59,0,1.07,0.48,1.07,1.07v11.71c0,0.59-0.48,1.07-1.07,1.07h-1.61
			c-0.59,0-1.07-0.48-1.07-1.07V746.8C412.33,746.21,412.81,745.73,413.4,745.73z"/>
		<path class="st32" d="M413.4,714.86h1.61c0.59,0,1.07,0.48,1.07,1.07v11.71c0,0.59-0.48,1.07-1.07,1.07h-1.61
			c-0.59,0-1.07-0.48-1.07-1.07v-11.71C412.33,715.34,412.81,714.86,413.4,714.86z"/>
	</g>
	<g>
		<g>
			<path class="st29" d="M1.45,649.65c1.93,0,1.93-3,0-3C-0.48,646.65-0.48,649.65,1.45,649.65L1.45,649.65z"/>
		</g>
	</g>
</g>
<g id="Text_1_">
</g>
</svg>
