<svg xmlns="http://www.w3.org/2000/svg" viewBox="0 0 886.32 242.8"><defs><style>.cls-1{fill:#056eb4;}</style></defs><title>Stratapp0</title><g id="Layer_2" data-name="Layer 2"><g id="Layer_1-2" data-name="Layer 1"><path d="M196.94,110.3a14.13,14.13,0,0,0-.89-5.08,10.32,10.32,0,0,0-3.51-4.4A28,28,0,0,0,185.16,97a84.71,84.71,0,0,0-12.42-3.35,110.16,110.16,0,0,1-16.6-4.72,51,51,0,0,1-12.83-6.86A29.7,29.7,0,0,1,135,72.59,25.73,25.73,0,0,1,132,60a29.59,29.59,0,0,1,3-13.15,32.77,32.77,0,0,1,8.75-10.95,43.56,43.56,0,0,1,13.83-7.49,55.94,55.94,0,0,1,18.17-2.77,60.61,60.61,0,0,1,19,2.77,43.32,43.32,0,0,1,14.31,7.65,32.71,32.71,0,0,1,12,25.72H195.69a16.63,16.63,0,0,0-1.26-6.34,16,16,0,0,0-3.77-5.5,18.2,18.2,0,0,0-6.24-3.82,24.08,24.08,0,0,0-8.64-1.42,26.32,26.32,0,0,0-8.38,1.21,18.63,18.63,0,0,0-5.92,3.14A12.4,12.4,0,0,0,158,53.58,13.15,13.15,0,0,0,156.82,59a11.54,11.54,0,0,0,1.05,5,10.08,10.08,0,0,0,3.72,4,30.66,30.66,0,0,0,7.17,3.3,105.17,105.17,0,0,0,11.32,3,133.46,133.46,0,0,1,17.65,4.93,50.23,50.23,0,0,1,13.2,6.91,28,28,0,0,1,8.22,9.64,28.69,28.69,0,0,1,2.83,13.2,29.62,29.62,0,0,1-3.25,13.83,31.78,31.78,0,0,1-9.27,10.84A44.73,44.73,0,0,1,195,140.68a66.09,66.09,0,0,1-18.85,2.52,59.1,59.1,0,0,1-20.59-3.31,47,47,0,0,1-15-8.63,36.09,36.09,0,0,1-9.17-12.11,32.77,32.77,0,0,1-3.09-13.77h24.72a19.58,19.58,0,0,0,2.41,8.8,17.72,17.72,0,0,0,5.35,5.76,22.22,22.22,0,0,0,7.33,3.19,35,35,0,0,0,8.38,1q10.05,0,15.3-3.82a11.86,11.86,0,0,0,5.23-10"/><path d="M269.79,0V27.55h20V46.41h-20v63.27a19.51,19.51,0,0,0,.84,6.29,8.23,8.23,0,0,0,2.41,3.72,8.6,8.6,0,0,0,3.72,1.78,22.52,22.52,0,0,0,4.76.47,33.65,33.65,0,0,0,5.08-.37c1.64-.24,2.92-.47,3.82-.68v19.7c-2,.55-4.38,1.1-7.06,1.62a51.81,51.81,0,0,1-9.7.79A39,39,0,0,1,262,141.32a23.17,23.17,0,0,1-9.33-5.45,25.31,25.31,0,0,1-6.13-9.84,43.93,43.93,0,0,1-2.2-14.88V46.41H225.69V27.55h18.64V0Z"/><path d="M368.9,51.14c-1.68-.28-3.37-.49-5.08-.63s-3.47-.21-5.29-.21q-9.22,0-15,3.57A21.83,21.83,0,0,0,335,63.71v77.52H309.5V27.88h24.31l.63,12.68a32.83,32.83,0,0,1,10.63-10.84A27.74,27.74,0,0,1,360,25.79a30.48,30.48,0,0,1,5,.47,20.31,20.31,0,0,1,4,1Z"/><path d="M446.31,141.23a21.81,21.81,0,0,1-1.73-4.71c-.45-1.82-.85-3.77-1.2-5.87a44.85,44.85,0,0,1-5.61,4.93,38.34,38.34,0,0,1-6.8,4,40.49,40.49,0,0,1-8.07,2.72,41.1,41.1,0,0,1-9.27,1A45.77,45.77,0,0,1,398,140.76a36.63,36.63,0,0,1-12.21-7.12,33.14,33.14,0,0,1-8-10.74A31.35,31.35,0,0,1,375,109.49a36,36,0,0,1,3.46-16.13,31.14,31.14,0,0,1,10.06-11.73,48,48,0,0,1,16.18-7.18A88.15,88.15,0,0,1,426.52,72h16V64.55q0-8.8-4.92-14.09t-15-5.29a25.82,25.82,0,0,0-8.17,1.21,19.79,19.79,0,0,0-6.24,3.24,14.64,14.64,0,0,0-4,4.87,13.48,13.48,0,0,0-1.41,6.08H377.38a27.33,27.33,0,0,1,3.3-12.94,35.66,35.66,0,0,1,9.38-11.1,47.86,47.86,0,0,1,14.72-7.81,64.73,64.73,0,0,1,36.93-.47,39.5,39.5,0,0,1,13.92,7.34,32.77,32.77,0,0,1,9.12,12.15,41.35,41.35,0,0,1,3.25,17V115q0,15.3,4.29,24.42v1.77Zm-28-18.33a28.32,28.32,0,0,0,8.23-1.15,29.52,29.52,0,0,0,6.91-3,25.87,25.87,0,0,0,5.4-4.35,24.62,24.62,0,0,0,3.66-5V88H428.82q-14.15,0-21.27,4.92t-7.12,13.94a17.23,17.23,0,0,0,1.15,6.38,13.76,13.76,0,0,0,3.46,5.09,16.35,16.35,0,0,0,5.6,3.35,22.52,22.52,0,0,0,7.7,1.2"/><path d="M522.41,0V27.55h20V46.41h-20v63.27a19.51,19.51,0,0,0,.84,6.29,8.15,8.15,0,0,0,2.41,3.72,8.61,8.61,0,0,0,3.71,1.78,22.62,22.62,0,0,0,4.77.47,33.65,33.65,0,0,0,5.08-.37c1.64-.24,2.92-.47,3.82-.68v19.7c-2,.55-4.38,1.1-7.07,1.62a51.77,51.77,0,0,1-9.69.79,39.12,39.12,0,0,1-11.68-1.68,23.13,23.13,0,0,1-9.32-5.45,25.31,25.31,0,0,1-6.13-9.84,43.93,43.93,0,0,1-2.2-14.88V46.41H478.31V27.55H497V0Z"/><path class="cls-1" d="M630,141a21,21,0,0,1-1.73-4.71q-.69-2.73-1.21-5.87a43.89,43.89,0,0,1-5.6,4.92,38.71,38.71,0,0,1-6.81,4,40.49,40.49,0,0,1-8.07,2.72,41.1,41.1,0,0,1-9.27,1,45.77,45.77,0,0,1-15.61-2.57,36.5,36.5,0,0,1-12.2-7.13,32.86,32.86,0,0,1-8-10.73,31.39,31.39,0,0,1-2.89-13.41,36.17,36.17,0,0,1,3.46-16.14,31.23,31.23,0,0,1,10.06-11.73,48.19,48.19,0,0,1,16.19-7.17,87.54,87.54,0,0,1,21.84-2.46h16V64.31q0-8.81-4.93-14.09t-15-5.29a26.16,26.16,0,0,0-8.17,1.2,19.74,19.74,0,0,0-6.23,3.25,14.47,14.47,0,0,0-4,4.87,13.45,13.45,0,0,0-1.41,6.08H561.05a27.18,27.18,0,0,1,3.3-12.94,35.54,35.54,0,0,1,9.37-11.11,48,48,0,0,1,14.72-7.8A64.73,64.73,0,0,1,625.37,28a39.77,39.77,0,0,1,13.93,7.33,33,33,0,0,1,9.11,12.15,41.43,41.43,0,0,1,3.25,17V114.8q0,15.3,4.3,24.41V141Zm-28-18.33a28.67,28.67,0,0,0,8.23-1.15,29.52,29.52,0,0,0,6.91-3,25.87,25.87,0,0,0,5.4-4.35,24.46,24.46,0,0,0,3.67-5V87.77H612.48q-14.15,0-21.27,4.93a16,16,0,0,0-7.12,13.93,17.32,17.32,0,0,0,1.15,6.39,13.65,13.65,0,0,0,3.46,5.08,16.57,16.57,0,0,0,5.6,3.36,22.76,22.76,0,0,0,7.7,1.2"/><path class="cls-1" d="M770.62,85.58a86.66,86.66,0,0,1-2.89,22.94,55.14,55.14,0,0,1-8.48,18.28,40.24,40.24,0,0,1-13.83,12,39.59,39.59,0,0,1-18.8,4.35,43,43,0,0,1-17.08-3.15,36.59,36.59,0,0,1-12.78-9.11v53.74H671.3V27.75h23.47l1.05,11.53a36.9,36.9,0,0,1,12.94-10.11,40.94,40.94,0,0,1,17.54-3.51,41.7,41.7,0,0,1,19.07,4.19,38.87,38.87,0,0,1,13.88,11.78,54,54,0,0,1,8.48,18.23,89.45,89.45,0,0,1,2.89,23.52Zm-25.36-2.2A64.38,64.38,0,0,0,743.74,69a37.34,37.34,0,0,0-4.66-11.73,22.09,22.09,0,0,0-19.9-10.8q-8.38,0-13.83,3.46a24.46,24.46,0,0,0-8.59,9.43v50.28a25.8,25.8,0,0,0,8.54,9.59q5.38,3.61,14.09,3.61a22.1,22.1,0,0,0,11.78-3,24.27,24.27,0,0,0,8-8.07,37.58,37.58,0,0,0,4.61-11.89,67.85,67.85,0,0,0,1.46-14.35Z"/><path class="cls-1" d="M886.32,85.58a87.08,87.08,0,0,1-2.88,22.94A55.14,55.14,0,0,1,875,126.8a40.24,40.24,0,0,1-13.83,12,39.59,39.59,0,0,1-18.8,4.35,43,43,0,0,1-17.08-3.15,36.59,36.59,0,0,1-12.78-9.11v53.74H787V27.75h23.47l1,11.53a37,37,0,0,1,12.93-10.11A41,41,0,0,1,842,25.66a41.7,41.7,0,0,1,19.07,4.19A39,39,0,0,1,875,41.63a54,54,0,0,1,8.48,18.23,89.88,89.88,0,0,1,2.88,23.52ZM861,83.38A65,65,0,0,0,859.45,69a37.34,37.34,0,0,0-4.66-11.73,22.12,22.12,0,0,0-19.9-10.8q-8.39,0-13.83,3.46a24.39,24.39,0,0,0-8.59,9.43v50.28a25.77,25.77,0,0,0,8.53,9.59q5.4,3.61,14.1,3.61a22.12,22.12,0,0,0,11.78-3,24.27,24.27,0,0,0,8-8.07,37.58,37.58,0,0,0,4.61-11.89A68.51,68.51,0,0,0,861,85.58Z"/><polygon points="26.78 143.74 67.31 13 51.73 13 12.33 143.74 26.78 143.74"/><polygon points="66.53 143.74 107.06 13 91.49 13 52.09 143.74 66.53 143.74"/><rect x="6.79" y="49.03" width="111.45" height="17.01"/><rect y="92.62" width="111.45" height="17.02"/><path d="M145.08,227.29a4.28,4.28,0,0,0-.25-1.44,3.52,3.52,0,0,0-.94-1.36A7.07,7.07,0,0,0,142,223.3a16.21,16.21,0,0,0-3.2-1,27.08,27.08,0,0,1-3.49-1,9.81,9.81,0,0,1-2.59-1.32,5,5,0,0,1-1.6-1.84,5.45,5.45,0,0,1-.55-2.5,5.61,5.61,0,0,1,.58-2.48,5.92,5.92,0,0,1,1.66-2,8.08,8.08,0,0,1,2.61-1.38,10.88,10.88,0,0,1,3.45-.51,11.91,11.91,0,0,1,3.67.53,7.91,7.91,0,0,1,2.74,1.48,6.35,6.35,0,0,1,1.71,2.23,6.53,6.53,0,0,1,.59,2.79H145a4.21,4.21,0,0,0-.41-1.79,4.41,4.41,0,0,0-1.17-1.53,6.33,6.33,0,0,0-1.92-1.08,7.51,7.51,0,0,0-2.6-.41,8,8,0,0,0-2.6.37,5.3,5.3,0,0,0-1.77,1,3.76,3.76,0,0,0-1,1.32,3.7,3.7,0,0,0-.31,1.47,4.09,4.09,0,0,0,.24,1.43,2.79,2.79,0,0,0,.92,1.2,7.07,7.07,0,0,0,1.92,1,26.47,26.47,0,0,0,3.21.93,25.94,25.94,0,0,1,3.68,1.11,9.54,9.54,0,0,1,2.56,1.44,5.35,5.35,0,0,1,1.5,1.92,5.92,5.92,0,0,1,.49,2.49,5.79,5.79,0,0,1-.61,2.67,5.92,5.92,0,0,1-1.74,2.07,8.65,8.65,0,0,1-2.74,1.34,13,13,0,0,1-3.6.48,12.6,12.6,0,0,1-4-.58,8.91,8.91,0,0,1-2.9-1.56,6.55,6.55,0,0,1-1.77-2.25,6.14,6.14,0,0,1-.6-2.65h2.61a4.58,4.58,0,0,0,.72,2.32,4.82,4.82,0,0,0,1.57,1.48,6.77,6.77,0,0,0,2.08.8,10.9,10.9,0,0,0,2.25.24,9,9,0,0,0,2.62-.35,5.82,5.82,0,0,0,1.9-.94,3.91,3.91,0,0,0,1.17-1.35,3.43,3.43,0,0,0,.39-1.59"/><path d="M158.68,203.69v6h4.88v2.13h-4.88v15.71a6.39,6.39,0,0,0,.25,2,3,3,0,0,0,.67,1.18,2.2,2.2,0,0,0,1,.56,4.93,4.93,0,0,0,1.17.14,8.26,8.26,0,0,0,1.13-.07l1-.14.11,2.13a6.77,6.77,0,0,1-1.26.27,11.23,11.23,0,0,1-1.53.1,6.84,6.84,0,0,1-2.06-.3,3.62,3.62,0,0,1-1.62-1,4.88,4.88,0,0,1-1.05-1.9,9.58,9.58,0,0,1-.39-2.95V211.85h-4.33v-2.13h4.33v-6Z"/><path d="M180.73,211.94a9.9,9.9,0,0,0-1.77-.15,6.93,6.93,0,0,0-2.39.39,6.13,6.13,0,0,0-1.89,1.1,6.43,6.43,0,0,0-1.37,1.68,9.33,9.33,0,0,0-.88,2.14v16.18h-2.59V209.72h2.55l0,3.75a7.75,7.75,0,0,1,2.6-3.06,7,7,0,0,1,4-1.12,5.47,5.47,0,0,1,1,.08,3.55,3.55,0,0,1,.74.2Z"/><path d="M200.21,233.28a7.93,7.93,0,0,1-.33-1.49,17.43,17.43,0,0,1-.17-1.8,9,9,0,0,1-1.39,1.44,9.57,9.57,0,0,1-1.81,1.18,11,11,0,0,1-2.2.8,10.57,10.57,0,0,1-2.59.31,9,9,0,0,1-3.12-.51,6.79,6.79,0,0,1-2.4-1.4,6.29,6.29,0,0,1-1.53-2.12,6.37,6.37,0,0,1-.55-2.66,6.55,6.55,0,0,1,.74-3.11,6.8,6.8,0,0,1,2.14-2.34,10.36,10.36,0,0,1,3.38-1.48,18.09,18.09,0,0,1,4.48-.51h4.83v-2.68a5.17,5.17,0,0,0-1.56-4,6.45,6.45,0,0,0-4.53-1.45,8.45,8.45,0,0,0-2.53.37,6.41,6.41,0,0,0-2,1,4.66,4.66,0,0,0-1.3,1.51,3.81,3.81,0,0,0-.47,1.84l-2.61,0a5.51,5.51,0,0,1,.65-2.57,7.36,7.36,0,0,1,1.84-2.21,9.33,9.33,0,0,1,2.86-1.56,11,11,0,0,1,3.69-.58,11.56,11.56,0,0,1,3.45.48,7.4,7.4,0,0,1,2.71,1.43,6.57,6.57,0,0,1,1.76,2.4,8.27,8.27,0,0,1,.64,3.35v11.41c0,.41,0,.83,0,1.27s.07.85.14,1.26.14.79.23,1.16a5.06,5.06,0,0,0,.3,1v.26ZM192,231.41a9.17,9.17,0,0,0,2.62-.36,8.41,8.41,0,0,0,2.19-1,7.79,7.79,0,0,0,1.7-1.47,7.44,7.44,0,0,0,1.15-1.82v-5.18h-4.46a16.11,16.11,0,0,0-3.58.36,8.6,8.6,0,0,0-2.67,1,4.89,4.89,0,0,0-1.67,1.65,4.2,4.2,0,0,0-.57,2.18,4.35,4.35,0,0,0,1.42,3.26,5.08,5.08,0,0,0,1.67,1,6.31,6.31,0,0,0,2.2.36"/><path d="M213.5,203.69v6h4.87v2.13H213.5v15.71a6.39,6.39,0,0,0,.25,2,3.1,3.1,0,0,0,.67,1.18,2.2,2.2,0,0,0,1,.56,4.93,4.93,0,0,0,1.17.14,8.26,8.26,0,0,0,1.13-.07l1-.14.11,2.13a6.82,6.82,0,0,1-1.25.27,11.48,11.48,0,0,1-1.54.1,6.73,6.73,0,0,1-2.05-.3,3.6,3.6,0,0,1-1.63-1,4.88,4.88,0,0,1-1-1.9,9.58,9.58,0,0,1-.39-2.95V211.85h-4.33v-2.13h4.33v-6Z"/><path d="M233.93,233.72a10.45,10.45,0,0,1-4.25-.86,10.15,10.15,0,0,1-3.34-2.4,11.21,11.21,0,0,1-2.19-3.65,13.25,13.25,0,0,1-.78-4.64v-.93a14,14,0,0,1,.82-4.93,11.48,11.48,0,0,1,2.21-3.77,9.7,9.7,0,0,1,3.21-2.4,8.9,8.9,0,0,1,3.84-.85,9.51,9.51,0,0,1,4,.8,8.34,8.34,0,0,1,2.93,2.24,9.78,9.78,0,0,1,1.79,3.42,14.57,14.57,0,0,1,.61,4.33v1.6H226v.49a11.17,11.17,0,0,0,.59,3.65,9.19,9.19,0,0,0,1.66,3,7.72,7.72,0,0,0,2.54,2,7.46,7.46,0,0,0,3.29.73,8.45,8.45,0,0,0,3.69-.76,8.27,8.27,0,0,0,2.91-2.44l1.64,1.24a12.05,12.05,0,0,1-1.37,1.61,8.09,8.09,0,0,1-1.79,1.33,10.37,10.37,0,0,1-2.31.89,11.63,11.63,0,0,1-2.88.33m-.48-22.21a6.71,6.71,0,0,0-2.74.56,6.91,6.91,0,0,0-2.23,1.61,8.46,8.46,0,0,0-1.59,2.52,12.08,12.08,0,0,0-.84,3.26h14.13v-.29a10.51,10.51,0,0,0-.48-2.86,7.61,7.61,0,0,0-1.27-2.45,6.31,6.31,0,0,0-2.08-1.71,6.23,6.23,0,0,0-2.9-.64"/><path d="M248.15,221.28a18.47,18.47,0,0,1,.62-4.95,11.24,11.24,0,0,1,1.8-3.78,8,8,0,0,1,2.86-2.41,8.32,8.32,0,0,1,3.82-.85,8.67,8.67,0,0,1,4.33,1,8.4,8.4,0,0,1,3,2.82l.13-3.4h2.44v23.15a11.71,11.71,0,0,1-.68,4.1,8.72,8.72,0,0,1-1.9,3.08,8.23,8.23,0,0,1-3,1.94,10.69,10.69,0,0,1-3.89.68,11.19,11.19,0,0,1-2.27-.25,11,11,0,0,1-2.23-.75,10.79,10.79,0,0,1-2-1.26,8.27,8.27,0,0,1-1.67-1.77l1.46-1.57a9.57,9.57,0,0,0,3,2.58,7.77,7.77,0,0,0,3.53.82,7.92,7.92,0,0,0,3-.52,5.72,5.72,0,0,0,2.18-1.47,6.47,6.47,0,0,0,1.36-2.36,9.55,9.55,0,0,0,.47-3.14v-2.75a8.28,8.28,0,0,1-3,2.56,9.32,9.32,0,0,1-4.31.93,8.11,8.11,0,0,1-3.79-.88,8.31,8.31,0,0,1-2.85-2.47,11.24,11.24,0,0,1-1.8-3.78,17.92,17.92,0,0,1-.62-4.85Zm2.63.46a16.61,16.61,0,0,0,.42,3.84,9.31,9.31,0,0,0,1.26,3.08,6.1,6.1,0,0,0,2.15,2.05,6,6,0,0,0,3.08.74,8.32,8.32,0,0,0,2.43-.32,6.62,6.62,0,0,0,3.34-2.27,8.94,8.94,0,0,0,1-1.72V216.19a9.05,9.05,0,0,0-.94-1.76,6.77,6.77,0,0,0-1.4-1.48,6.4,6.4,0,0,0-1.9-1,7.78,7.78,0,0,0-2.53-.38,6.12,6.12,0,0,0-3.11.75,6.25,6.25,0,0,0-2.16,2.06,9.37,9.37,0,0,0-1.26,3.09,16.71,16.71,0,0,0-.42,3.83Z"/><path d="M282.21,229.54l6.88-19.82h2.81l-10,27.33c-.21.54-.47,1.14-.78,1.81a8,8,0,0,1-1.22,1.87,6.42,6.42,0,0,1-1.87,1.47,5.74,5.74,0,0,1-2.73.6,3.34,3.34,0,0,1-.51,0l-.56-.07-.53-.1-.41-.1,0-2.16c.18,0,.41.06.71.1l.64,0a5.49,5.49,0,0,0,1.85-.28,4.08,4.08,0,0,0,1.41-.8,5.12,5.12,0,0,0,1-1.34,11,11,0,0,0,.83-1.85l1.13-3.12L272,209.72h2.85Z"/><path d="M337.21,233.74a10.46,10.46,0,0,1-4.26-.86,10.19,10.19,0,0,1-3.35-2.4,11,11,0,0,1-2.19-3.66,13.33,13.33,0,0,1-.79-4.64v-.94a14.12,14.12,0,0,1,.82-5,11.33,11.33,0,0,1,2.22-3.77,9.73,9.73,0,0,1,3.21-2.41,9,9,0,0,1,3.85-.85,9.59,9.59,0,0,1,4,.8,8.25,8.25,0,0,1,2.93,2.25,9.76,9.76,0,0,1,1.8,3.43,14.59,14.59,0,0,1,.61,4.34v1.59H329.22v.51a11,11,0,0,0,.59,3.65,9.47,9.47,0,0,0,1.65,3,7.87,7.87,0,0,0,2.56,2,7.33,7.33,0,0,0,3.29.74,8.49,8.49,0,0,0,3.7-.77,8.16,8.16,0,0,0,2.91-2.44l1.64,1.24a12,12,0,0,1-1.36,1.62,8.19,8.19,0,0,1-1.81,1.32,9.19,9.19,0,0,1-2.31.9,11.49,11.49,0,0,1-2.87.33m-.49-22.26a6.67,6.67,0,0,0-2.75.57,6.9,6.9,0,0,0-2.23,1.62,8.43,8.43,0,0,0-1.6,2.52,12.36,12.36,0,0,0-.84,3.26h14.17v-.29a10.65,10.65,0,0,0-.48-2.87,7.63,7.63,0,0,0-1.28-2.45,6.11,6.11,0,0,0-5-2.36"/><polygon points="359.78 219.27 366.15 209.69 369.25 209.69 361.24 221.28 369.6 233.3 366.52 233.3 359.8 223.31 353.08 233.3 350.01 233.3 358.34 221.28 350.33 209.69 353.41 209.69 359.78 219.27"/><path d="M382.8,233.74a10.41,10.41,0,0,1-4.25-.86,10.08,10.08,0,0,1-3.35-2.4,11.21,11.21,0,0,1-2.2-3.66,13.33,13.33,0,0,1-.78-4.64v-.94a14.12,14.12,0,0,1,.82-5,11.48,11.48,0,0,1,2.21-3.77,9.77,9.77,0,0,1,3.22-2.41,9,9,0,0,1,3.85-.85,9.51,9.51,0,0,1,4,.8,8.29,8.29,0,0,1,2.94,2.25,9.92,9.92,0,0,1,1.8,3.43,14.59,14.59,0,0,1,.61,4.34v1.59H374.81v.51a11,11,0,0,0,.6,3.65,9.27,9.27,0,0,0,1.65,3,7.77,7.77,0,0,0,2.56,2,7.3,7.3,0,0,0,3.29.74,8.49,8.49,0,0,0,3.7-.77,8.25,8.25,0,0,0,2.91-2.44l1.64,1.24a11.43,11.43,0,0,1-1.37,1.62,7.9,7.9,0,0,1-1.8,1.32,9.19,9.19,0,0,1-2.31.9,11.63,11.63,0,0,1-2.88.33m-.48-22.26a6.6,6.6,0,0,0-2.75.57,6.94,6.94,0,0,0-2.24,1.62,8.6,8.6,0,0,0-1.59,2.52,12.36,12.36,0,0,0-.84,3.26h14.16v-.29a10.65,10.65,0,0,0-.48-2.87,7.61,7.61,0,0,0-1.27-2.45,6.34,6.34,0,0,0-2.09-1.71,6.23,6.23,0,0,0-2.9-.65"/><path d="M407.9,231.54a7.61,7.61,0,0,0,2.39-.37,6.17,6.17,0,0,0,2-1,5.71,5.71,0,0,0,1.47-1.73,5.29,5.29,0,0,0,.67-2.37H417a7.33,7.33,0,0,1-.84,3.09,8.25,8.25,0,0,1-2,2.45,9.68,9.68,0,0,1-2.85,1.6,10.18,10.18,0,0,1-3.41.58,9.82,9.82,0,0,1-4.36-.91,8.94,8.94,0,0,1-3.15-2.49,11,11,0,0,1-1.93-3.75,16.41,16.41,0,0,1-.64-4.64V221a16.47,16.47,0,0,1,.64-4.64,10.9,10.9,0,0,1,1.92-3.73,9.13,9.13,0,0,1,3.15-2.5,9.87,9.87,0,0,1,4.35-.91,10.38,10.38,0,0,1,3.53.59,8.47,8.47,0,0,1,2.83,1.68,8,8,0,0,1,1.93,2.65,9.26,9.26,0,0,1,.81,3.48h-2.51a6.8,6.8,0,0,0-.62-2.58,6.28,6.28,0,0,0-1.42-1.94,6,6,0,0,0-2.05-1.23,7.33,7.33,0,0,0-2.5-.43,6.92,6.92,0,0,0-3.44.79,6.74,6.74,0,0,0-2.3,2.11,9.14,9.14,0,0,0-1.29,3.06,15.7,15.7,0,0,0-.41,3.6V222a16,16,0,0,0,.41,3.64,9,9,0,0,0,1.28,3,6.42,6.42,0,0,0,2.31,2.11,7.16,7.16,0,0,0,3.46.79"/><path d="M438,230.31a7.5,7.5,0,0,1-3,2.52,10.22,10.22,0,0,1-4.57.91,9.79,9.79,0,0,1-3.16-.49,6.2,6.2,0,0,1-2.45-1.56,7.17,7.17,0,0,1-1.58-2.77,13.23,13.23,0,0,1-.55-4.11V209.69h2.59v15.17a9.82,9.82,0,0,0,.44,3.16,5.26,5.26,0,0,0,1.18,2,4.21,4.21,0,0,0,1.73,1.09,6.61,6.61,0,0,0,2.11.33,10.08,10.08,0,0,0,2.77-.35,6.62,6.62,0,0,0,2.07-1,5.82,5.82,0,0,0,1.44-1.49,7.26,7.26,0,0,0,.9-1.88V209.69h2.61V233.3h-2.53Z"/><path d="M452.58,203.65v6h4.89v2.14h-4.89v15.73a6.42,6.42,0,0,0,.25,2,3.11,3.11,0,0,0,.68,1.18,2.17,2.17,0,0,0,1,.57,5,5,0,0,0,1.17.14,8.5,8.5,0,0,0,1.14-.08l1-.14.11,2.14a7,7,0,0,1-1.26.27,11.48,11.48,0,0,1-1.54.1,6.79,6.79,0,0,1-2.06-.3,3.62,3.62,0,0,1-1.62-1,4.81,4.81,0,0,1-1.06-1.91,9.61,9.61,0,0,1-.39-3V211.83h-4.34v-2.14H450v-6Z"/><path d="M462.87,202.87a1.77,1.77,0,0,1,.48-1.26,2,2,0,0,1,2.63,0,1.73,1.73,0,0,1,.49,1.26,1.67,1.67,0,0,1-.49,1.23,2,2,0,0,1-2.63,0,1.7,1.7,0,0,1-.48-1.23M466,233.3h-2.62V209.69H466Z"/><path d="M473.4,221.15a14.62,14.62,0,0,1,.75-4.76,11.34,11.34,0,0,1,2.13-3.76,9.72,9.72,0,0,1,3.32-2.48,10.27,10.27,0,0,1,4.32-.89,10.47,10.47,0,0,1,4.37.89,9.66,9.66,0,0,1,3.33,2.48,11.14,11.14,0,0,1,2.12,3.76,14.89,14.89,0,0,1,.74,4.76v.72a14.74,14.74,0,0,1-.74,4.75,11.19,11.19,0,0,1-2.12,3.77,9.45,9.45,0,0,1-3.32,2.46,11,11,0,0,1-8.68,0,9.76,9.76,0,0,1-3.33-2.46,11.23,11.23,0,0,1-2.14-3.77,14.47,14.47,0,0,1-.75-4.75Zm2.62.72a12.87,12.87,0,0,0,.52,3.7,9.51,9.51,0,0,0,1.53,3.07,7.46,7.46,0,0,0,2.49,2.11,7.71,7.71,0,0,0,6.8,0,7.49,7.49,0,0,0,2.47-2.11,9.51,9.51,0,0,0,1.53-3.07,12.87,12.87,0,0,0,.52-3.7v-.72a12.7,12.7,0,0,0-.52-3.66,9.66,9.66,0,0,0-1.53-3.08,7.46,7.46,0,0,0-2.5-2.13,7.15,7.15,0,0,0-3.41-.8,7,7,0,0,0-3.38.8,7.55,7.55,0,0,0-2.47,2.13,9.66,9.66,0,0,0-1.53,3.08,12.7,12.7,0,0,0-.52,3.66Z"/><path d="M502.36,209.69l.08,4a10.6,10.6,0,0,1,1.41-1.83,8.58,8.58,0,0,1,3.9-2.33,9.26,9.26,0,0,1,2.39-.31,9.73,9.73,0,0,1,3.17.48,5.51,5.51,0,0,1,2.36,1.52,7,7,0,0,1,1.49,2.7,13.56,13.56,0,0,1,.51,4V233.3h-2.59V217.92a9.92,9.92,0,0,0-.4-3.06,5,5,0,0,0-1.11-2,4.23,4.23,0,0,0-1.75-1.06,8,8,0,0,0-2.31-.31A6.44,6.44,0,0,0,507,212a6.68,6.68,0,0,0-2,1.25,8.16,8.16,0,0,0-1.5,1.8,9.52,9.52,0,0,0-1,2.09V233.3h-2.6V209.69Z"/><path d="M562.46,231.49a7.59,7.59,0,0,0,2.38-.36,6.18,6.18,0,0,0,2-1,5.79,5.79,0,0,0,1.46-1.72A5.46,5.46,0,0,0,569,226h2.5a7.15,7.15,0,0,1-.84,3.09,8.1,8.1,0,0,1-2,2.45,9,9,0,0,1-2.84,1.59,10.64,10.64,0,0,1-7.75-.32A8.82,8.82,0,0,1,555,230.3a11,11,0,0,1-1.92-3.74,15.92,15.92,0,0,1-.64-4.62V221a15.94,15.94,0,0,1,.64-4.63,11,11,0,0,1,1.9-3.73,9.17,9.17,0,0,1,3.15-2.49,9.79,9.79,0,0,1,4.34-.91,10.28,10.28,0,0,1,3.52.59,8.35,8.35,0,0,1,2.83,1.67,8.27,8.27,0,0,1,1.93,2.64,9.07,9.07,0,0,1,.8,3.48H569a6.94,6.94,0,0,0-.63-2.57,6,6,0,0,0-1.41-1.94,6.29,6.29,0,0,0-2-1.23,7.33,7.33,0,0,0-2.5-.42,7,7,0,0,0-3.43.78,6.72,6.72,0,0,0-2.29,2.11,9.31,9.31,0,0,0-1.3,3.05,15.7,15.7,0,0,0-.4,3.6v.91a15.81,15.81,0,0,0,.4,3.62,9.21,9.21,0,0,0,1.29,3.05,6.64,6.64,0,0,0,2.3,2.1,7.16,7.16,0,0,0,3.46.78"/><path d="M576.45,221.13a14.56,14.56,0,0,1,.75-4.75,11.37,11.37,0,0,1,2.12-3.75,9.75,9.75,0,0,1,3.31-2.47,10.26,10.26,0,0,1,4.31-.89,10.39,10.39,0,0,1,4.36.89,9.5,9.5,0,0,1,3.32,2.47,11.19,11.19,0,0,1,2.12,3.75,14.83,14.83,0,0,1,.74,4.75v.72a14.68,14.68,0,0,1-.74,4.74,11,11,0,0,1-2.12,3.76,9.46,9.46,0,0,1-3.3,2.46,11.12,11.12,0,0,1-8.67,0,9.59,9.59,0,0,1-3.31-2.46,10.92,10.92,0,0,1-2.14-3.76,14.41,14.41,0,0,1-.75-4.74Zm2.61.72a13.16,13.16,0,0,0,.52,3.69,9.69,9.69,0,0,0,1.52,3.07,7.76,7.76,0,0,0,2.49,2.1,7.19,7.19,0,0,0,3.4.78,7.11,7.11,0,0,0,3.38-.78,7.58,7.58,0,0,0,2.47-2.1,9.51,9.51,0,0,0,1.53-3.07,13.16,13.16,0,0,0,.52-3.69v-.72a13,13,0,0,0-.52-3.65,9.61,9.61,0,0,0-1.53-3.07,7.52,7.52,0,0,0-2.49-2.13,7.12,7.12,0,0,0-3.41-.79,7,7,0,0,0-3.36.79,7.69,7.69,0,0,0-2.48,2.13,9.8,9.8,0,0,0-1.52,3.07,13,13,0,0,0-.52,3.65Z"/><rect x="603.95" y="199.82" width="2.61" height="33.43"/><rect x="614.87" y="199.82" width="2.61" height="33.43"/><path d="M642.11,233.25a7.07,7.07,0,0,1-.33-1.49,17.23,17.23,0,0,1-.17-1.79,9,9,0,0,1-1.39,1.44,9.36,9.36,0,0,1-1.81,1.17,11,11,0,0,1-2.2.81,10.64,10.64,0,0,1-2.59.3,9.28,9.28,0,0,1-3.12-.5,7,7,0,0,1-2.4-1.4,6.33,6.33,0,0,1-1.53-2.13,6.87,6.87,0,0,1,.19-5.75,6.66,6.66,0,0,1,2.14-2.35,10.36,10.36,0,0,1,3.38-1.48,18.09,18.09,0,0,1,4.48-.51h4.83v-2.68a5.15,5.15,0,0,0-1.56-4,6.45,6.45,0,0,0-4.53-1.45,8.14,8.14,0,0,0-2.53.38,6.34,6.34,0,0,0-2,1,4.91,4.91,0,0,0-1.31,1.51,3.84,3.84,0,0,0-.47,1.84l-2.61,0a5.51,5.51,0,0,1,.65-2.57,7.36,7.36,0,0,1,1.84-2.21,9.41,9.41,0,0,1,2.86-1.55,11,11,0,0,1,3.68-.59,11.79,11.79,0,0,1,3.45.48,7.25,7.25,0,0,1,2.71,1.43,6.48,6.48,0,0,1,1.77,2.4,8.27,8.27,0,0,1,.63,3.35v11.41c0,.4,0,.82,0,1.26s.08.86.14,1.26.15.8.23,1.16a5.55,5.55,0,0,0,.31,1v.26Zm-8.19-1.86a9.55,9.55,0,0,0,2.63-.36,8.52,8.52,0,0,0,2.18-1,7.85,7.85,0,0,0,1.71-1.46,7.5,7.5,0,0,0,1.15-1.83v-5.18h-4.46a15.51,15.51,0,0,0-3.58.37,8.36,8.36,0,0,0-2.67,1,5,5,0,0,0-1.67,1.64,4.26,4.26,0,0,0-.57,2.19,4.36,4.36,0,0,0,.37,1.8,4.42,4.42,0,0,0,1,1.46,5.26,5.26,0,0,0,1.67,1,6.53,6.53,0,0,0,2.19.36"/><path d="M670.41,221.72a18.35,18.35,0,0,1-.6,4.85,11.38,11.38,0,0,1-1.76,3.78,7.88,7.88,0,0,1-6.63,3.34,9.27,9.27,0,0,1-4.44-1,8.52,8.52,0,0,1-3-2.68l-.11,3.22h-2.44V199.82H654v13.3a8.45,8.45,0,0,1,3-2.84,8.77,8.77,0,0,1,4.37-1,8.35,8.35,0,0,1,3.84.85,7.87,7.87,0,0,1,2.83,2.41,11.2,11.2,0,0,1,1.77,3.78,18.86,18.86,0,0,1,.6,4.95Zm-2.62-.46a18,18,0,0,0-.39-3.83,9.34,9.34,0,0,0-1.23-3.09,5.9,5.9,0,0,0-5.28-2.81,7.78,7.78,0,0,0-2.61.4,6.61,6.61,0,0,0-2,1.08,6.81,6.81,0,0,0-1.39,1.55,9.56,9.56,0,0,0-.92,1.8V227a8.6,8.6,0,0,0,1,1.75,6.57,6.57,0,0,0,1.47,1.41,6.78,6.78,0,0,0,2,.94,8.17,8.17,0,0,0,2.46.34,5.87,5.87,0,0,0,5.21-2.79,9.39,9.39,0,0,0,1.25-3.08,17.21,17.21,0,0,0,.4-3.84Z"/><path d="M676,221.13a14.83,14.83,0,0,1,.74-4.75,11.39,11.39,0,0,1,2.13-3.75,9.75,9.75,0,0,1,3.31-2.47,10.26,10.26,0,0,1,4.31-.89,10.5,10.5,0,0,1,4.37.89,9.65,9.65,0,0,1,3.31,2.47,11.19,11.19,0,0,1,2.12,3.75,14.83,14.83,0,0,1,.74,4.75v.72a14.68,14.68,0,0,1-.74,4.74,11,11,0,0,1-2.12,3.76,9.46,9.46,0,0,1-3.3,2.46,11.12,11.12,0,0,1-8.67,0,9.73,9.73,0,0,1-3.32-2.46,11.09,11.09,0,0,1-2.14-3.76,14.68,14.68,0,0,1-.74-4.74Zm2.61.72a13.16,13.16,0,0,0,.52,3.69,9.51,9.51,0,0,0,1.53,3.07,7.42,7.42,0,0,0,2.48,2.1,7.76,7.76,0,0,0,6.78,0,7.58,7.58,0,0,0,2.47-2.1,9.29,9.29,0,0,0,1.52-3.07,12.81,12.81,0,0,0,.53-3.69v-.72a12.69,12.69,0,0,0-.53-3.65,9.39,9.39,0,0,0-1.52-3.07,7.42,7.42,0,0,0-2.49-2.13,7.15,7.15,0,0,0-3.41-.79,7,7,0,0,0-3.36.79,7.45,7.45,0,0,0-2.47,2.13,9.61,9.61,0,0,0-1.53,3.07,13,13,0,0,0-.52,3.65Z"/><path d="M713.89,211.92a10,10,0,0,0-1.77-.15,6.93,6.93,0,0,0-2.39.39,6.17,6.17,0,0,0-1.88,1.1,6.46,6.46,0,0,0-1.38,1.68,9.8,9.8,0,0,0-.88,2.14v16.17H703V209.7h2.55l0,3.75a7.82,7.82,0,0,1,2.6-3.06,7,7,0,0,1,4-1.12,5.5,5.5,0,0,1,1,.09,3,3,0,0,1,.74.19Z"/><path d="M732.84,233.25a7.69,7.69,0,0,1-.34-1.49c-.08-.58-.13-1.18-.16-1.79a9.4,9.4,0,0,1-1.39,1.44,9.07,9.07,0,0,1-1.81,1.17,11,11,0,0,1-2.2.81,10.64,10.64,0,0,1-2.59.3,9.28,9.28,0,0,1-3.12-.5,6.94,6.94,0,0,1-2.4-1.4,6.5,6.5,0,0,1-1.54-2.13,6.6,6.6,0,0,1-.53-2.65,6.48,6.48,0,0,1,.73-3.1,6.56,6.56,0,0,1,2.14-2.35,10.27,10.27,0,0,1,3.38-1.48,18.09,18.09,0,0,1,4.48-.51h4.83v-2.68a5.15,5.15,0,0,0-1.56-4,6.45,6.45,0,0,0-4.54-1.45,8.12,8.12,0,0,0-2.52.38,6.23,6.23,0,0,0-2,1,4.91,4.91,0,0,0-1.31,1.51,3.84,3.84,0,0,0-.47,1.84l-2.61,0a5.4,5.4,0,0,1,.66-2.57,7.18,7.18,0,0,1,1.83-2.21,9.48,9.48,0,0,1,2.85-1.55,11.11,11.11,0,0,1,3.69-.59,11.79,11.79,0,0,1,3.45.48,7.25,7.25,0,0,1,2.71,1.43,6.48,6.48,0,0,1,1.77,2.4,8.27,8.27,0,0,1,.63,3.35v11.41c0,.4,0,.82,0,1.26s.08.86.14,1.26.15.8.23,1.16a5.55,5.55,0,0,0,.31,1v.26Zm-8.19-1.86a9.55,9.55,0,0,0,2.63-.36,8.52,8.52,0,0,0,2.18-1,7.47,7.47,0,0,0,2.86-3.29v-5.18h-4.46a15.51,15.51,0,0,0-3.58.37,8.36,8.36,0,0,0-2.67,1,4.86,4.86,0,0,0-1.67,1.64,4.16,4.16,0,0,0-.57,2.19,4.52,4.52,0,0,0,.36,1.8,4.45,4.45,0,0,0,1.06,1.46,5.26,5.26,0,0,0,1.67,1,6.57,6.57,0,0,0,2.19.36"/><path d="M746.38,203.67v6h4.87v2.14h-4.87v15.69a6.35,6.35,0,0,0,.25,2,2.91,2.91,0,0,0,.67,1.18,2.11,2.11,0,0,0,1,.56,4.47,4.47,0,0,0,1.17.15,7,7,0,0,0,1.13-.08l1-.14.11,2.13a6,6,0,0,1-1.26.27,11.23,11.23,0,0,1-1.53.1,7.12,7.12,0,0,1-2.06-.29,3.73,3.73,0,0,1-1.62-1,4.81,4.81,0,0,1-1.05-1.9,9.57,9.57,0,0,1-.38-2.95V211.84h-4.34V209.7h4.34v-6Z"/><path d="M757.52,202.89a1.74,1.74,0,0,1,.48-1.25,1.72,1.72,0,0,1,1.31-.51,1.75,1.75,0,1,1,0,3.5,1.71,1.71,0,0,1-1.31-.5,1.74,1.74,0,0,1-.48-1.24m3.07,30.36H758V209.7h2.61Z"/><path d="M767.19,221.13a14.56,14.56,0,0,1,.74-4.75,11.21,11.21,0,0,1,2.13-3.75,9.65,9.65,0,0,1,3.31-2.47,10.21,10.21,0,0,1,4.3-.89,10.44,10.44,0,0,1,4.37.89,9.69,9.69,0,0,1,3.32,2.47,11,11,0,0,1,2.11,3.75,14.83,14.83,0,0,1,.74,4.75v.72a14.68,14.68,0,0,1-.74,4.74,10.87,10.87,0,0,1-2.11,3.76,9.59,9.59,0,0,1-3.31,2.46,11.09,11.09,0,0,1-8.66,0,9.54,9.54,0,0,1-3.32-2.46,11.09,11.09,0,0,1-2.14-3.76,14.41,14.41,0,0,1-.74-4.74Zm2.61.72a12.81,12.81,0,0,0,.52,3.69,9.49,9.49,0,0,0,1.52,3.07,7.62,7.62,0,0,0,2.48,2.1,7.22,7.22,0,0,0,3.4.78,7.06,7.06,0,0,0,3.38-.78,7.52,7.52,0,0,0,2.48-2.1,9.69,9.69,0,0,0,1.52-3.07,12.81,12.81,0,0,0,.52-3.69v-.72a12.68,12.68,0,0,0-.52-3.65,9.8,9.8,0,0,0-1.52-3.07,7.46,7.46,0,0,0-2.5-2.13,7.12,7.12,0,0,0-3.41-.79,7,7,0,0,0-3.36.79,7.55,7.55,0,0,0-2.47,2.13,9.59,9.59,0,0,0-1.52,3.07,12.68,12.68,0,0,0-.52,3.65Z"/><path d="M797.28,209.7l.09,4a10.55,10.55,0,0,1,1.4-1.83,8.63,8.63,0,0,1,1.78-1.41,8.47,8.47,0,0,1,2.11-.91,9.26,9.26,0,0,1,2.39-.31,9.67,9.67,0,0,1,3.16.48,5.57,5.57,0,0,1,2.36,1.52,6.94,6.94,0,0,1,1.48,2.68,13.6,13.6,0,0,1,.51,4v15.32H810V217.91a10.19,10.19,0,0,0-.39-3,5.08,5.08,0,0,0-1.1-2,4.15,4.15,0,0,0-1.76-1.05,7.89,7.89,0,0,0-2.3-.32,6.54,6.54,0,0,0-2.52.47,6.83,6.83,0,0,0-2,1.25,8.64,8.64,0,0,0-1.51,1.79,10.52,10.52,0,0,0-1,2.09v16.12H794.8V209.7Z"/><path class="cls-1" d="M310.54,215.18V204.33h-3.26v10.85a1.19,1.19,0,0,1-1.2,1.19H295.13v3.48h10.95a1.2,1.2,0,0,1,1.2,1.2v10.84h3.26V221.05a1.19,1.19,0,0,1,1.19-1.2h10.95v-3.48H311.73a1.19,1.19,0,0,1-1.19-1.19"/><path class="cls-1" d="M537,215.18V204.33h-3.25v10.85a1.19,1.19,0,0,1-1.2,1.19h-11v3.48h11a1.2,1.2,0,0,1,1.2,1.2v10.84H537V221.05a1.2,1.2,0,0,1,1.2-1.2h10.95v-3.48H538.22a1.19,1.19,0,0,1-1.2-1.19"/></g></g></svg>