<svg xmlns="http://www.w3.org/2000/svg" width="14.208" height="11.722" viewBox="0 0 14.208 11.722">
  <defs>
    <style>
      .cls-1 {
        fill: #fff;
        fill-rule: evenodd;
      }
    </style>
  </defs>
  <path id="Path_637" data-name="Path 637" class="cls-1" d="M206.122,389.867c.22.5.409,1.013.592,1.529.375-.469.754-.937,1.151-1.392,1.787-2.05,5.46-5.815,8.393-5.655.875.048.849.318.119.666-3.157,1.507-5.792,5.586-7.613,8.492a7.2,7.2,0,0,1-1.858,2.4,1.6,1.6,0,0,1-1.558-.1c-.845-.551-1.855-3.279-2.442-4.313a1.8,1.8,0,0,1,3.217-1.626Z" transform="translate(-202.711 -384.344)"/>
</svg>
