<svg xmlns="http://www.w3.org/2000/svg" width="12.541" height="11.721" viewBox="0 0 12.541 11.721">
  <defs>
    <style>
      .cls-1 {
        fill: #006eb6;
        fill-rule: evenodd;
      }
    </style>
  </defs>
  <path id="Path_641" data-name="Path 641" class="cls-1" d="M322.67,384.1c.869.047.844.315.118.662a15.351,15.351,0,0,0-5.187,4.873c1.573,2.239,3.487,4.482,5.646,5.513.725.346.75.614-.118.661-2.266.123-5-1.554-7.228-3.678-.236.367-.461.724-.674,1.065-2.658,4.241-5.014,2.784-3.513-.493a14.564,14.564,0,0,1,1.977-3.039,13.527,13.527,0,0,1-1.518-2.457c-1.5-3.277.855-4.734,3.513-.493q.163.261.336.533c2.111-1.865,4.575-3.259,6.648-3.146Z" transform="translate(-311.246 -384.092)"/>
</svg>
