<?xml version="1.0" encoding="UTF-8"?>
<svg width="300px" height="51px" viewBox="0 0 300 51" version="1.1" xmlns="http://www.w3.org/2000/svg" xmlns:xlink="http://www.w3.org/1999/xlink">
    <!-- Generator: Sketch 64 (93537) - https://sketch.com -->
    <title>logo-onedrive</title>
    <desc>Created with Sketch.</desc>
    <g id="Page-1" stroke="none" stroke-width="1" fill="none" fill-rule="evenodd">
        <g id="logo-onedrive" fill="#094AB1" fill-rule="nonzero">
            <path d="M27.5254949,49.9215609 C22.3875959,48.6377889 19.5251844,44.5537407 19.5160456,38.4939353 C19.51324,36.5565581 19.6534143,35.6282541 20.137012,34.3821503 C21.3224486,31.3276165 24.4609462,29.02318 28.5908424,28.1749474 C30.6458563,27.7528677 31.2789703,27.2996869 31.2789703,26.2507685 C31.2789703,25.921636 31.5235579,24.9414589 31.8224736,24.0725933 C33.1805088,20.1254274 35.6948925,16.8349335 38.381658,15.4888788 C41.193595,14.0800966 42.6132706,13.7623941 46.0148369,13.7806582 C50.8457544,13.8065989 53.2559027,14.854522 56.6268573,18.3946943 L58.4807683,20.3416804 L60.1416117,19.7669205 C68.1798323,16.9851225 76.1931409,21.7204877 76.8390723,29.6340956 L77.0157637,31.7989585 L78.5986738,32.3660947 C83.1192206,33.9857583 85.2440213,37.3868185 84.8588313,42.3864284 C84.6069314,45.6559779 83.0782382,48.2663505 80.6565236,49.5622143 L79.5180528,50.1714145 L54.2168758,50.2201652 C34.7742067,50.2576276 28.5937618,50.1884858 27.5254949,49.9215609 L27.5254949,49.9215609 Z" id="path4256"></path>
            <path d="M8.55832159,46.4263829 C5.55886932,45.7135451 2.38064875,43.0643199 0.890304912,40.0346591 C0.0449026877,38.3160762 0,38.0633088 0,35.0229437 C0,32.1310966 0.0721473587,31.6671614 0.745151066,30.2312652 C2.16390918,27.2042541 4.88223448,25.0170567 8.2929203,24.1582365 C9.01273123,23.9769854 9.68911029,23.6876842 9.79598424,23.515344 C9.9028582,23.3430011 10.0215792,22.4041707 10.0598035,21.4290512 C10.2972178,15.3729131 14.2708026,10.0367472 19.81924,8.3230076 C22.8168128,7.3971531 26.5827053,7.62490009 29.8431131,8.92921613 C30.8771816,9.34289917 30.7607405,9.4315924 32.9471816,6.56465728 C34.2402122,4.86917349 36.852937,2.76052104 38.9915839,1.68637646 C41.299721,0.52711696 43.7002215,-0.00696923077 46.5709073,-6.80615712e-05 C54.594253,0.019752734 61.5090445,5.03825505 64.0659954,12.6973941 C64.8829462,15.1445377 64.8422141,15.8298918 63.8785996,15.850091 C63.4580714,15.8589047 62.2531501,16.0904914 61.2009815,16.3647259 L59.2879601,16.8633348 L57.5423716,15.1177713 C52.6206478,10.1960447 44.5883216,9.132243 37.7600269,12.4977981 C35.0320843,13.842357 32.8399713,15.7726554 31.1841603,18.2882374 C30.0037062,20.0816619 28.4986182,23.4273459 28.4986182,24.2580039 C28.4986182,24.8473051 28.0214541,25.1417722 25.9836228,25.8100771 C19.6744171,27.8791707 15.9918906,32.6575896 15.9944347,38.7719705 C15.9952688,40.9974172 16.5684467,43.7205081 17.3641029,45.2801244 C17.6640417,45.8680521 17.8313967,46.4271364 17.7360028,46.5225303 C17.4920408,46.7664923 9.64344578,46.684269 8.55832159,46.4263829 L8.55832159,46.4263829 Z" id="path4248"></path>
            <path d="M113.488796,44.9659807 C108.51999,44.9659807 104.540886,43.3287231 101.551474,40.054205 C98.5620473,36.7796981 97.0673411,32.5195729 97.0673411,27.2738185 C97.0673411,21.6371105 98.590557,17.1407639 101.637003,13.7847648 C104.683432,10.4288269 108.829521,8.75080649 114.075278,8.75080649 C118.913718,8.75080649 122.811365,10.3799538 125.768233,13.6381457 C128.725038,16.8963987 130.203492,21.1565238 130.203492,26.4185349 C130.203492,32.1367323 128.688383,36.6575155 125.658268,39.9808955 C122.62809,43.3042866 118.571604,44.9659807 113.488796,44.9659807 L113.488796,44.9659807 Z M113.782037,12.4651846 C110.100228,12.4651846 107.110807,13.7929418 104.813772,16.4483644 C102.516715,19.1038426 101.368198,22.5901401 101.368198,26.907268 C101.368198,31.2244293 102.488205,34.6985071 104.728243,37.3295155 C106.968261,39.9605377 109.888443,41.2760419 113.488796,41.2760419 C117.33348,41.2760419 120.363626,40.0216276 122.579245,37.5127907 C124.794808,35.0039677 125.902635,31.4932337 125.902635,26.9805776 C125.902635,22.3539186 124.82739,18.7780215 122.676992,16.2528723 C120.526537,13.7277759 117.561555,12.4651846 113.782037,12.4651846 L113.782037,12.4651846 Z" id="path3010"></path>
            <path d="M157.328217,44.3795016 L153.3206,44.3795016 L153.3206,30.1084738 C153.320579,24.7975868 151.381937,22.1421364 147.504668,22.1421142 C145.500846,22.1421364 143.843226,22.895598 142.531802,24.4025071 C141.220357,25.9094552 140.56464,27.8114413 140.564648,30.1084738 L140.564648,44.3795016 L136.557031,44.3795016 L136.557031,19.356332 L140.564648,19.356332 L140.564648,23.5105674 L140.662395,23.5105674 C142.552156,20.3501133 145.289062,18.76985 148.873122,18.76985 C151.610012,18.76985 153.70342,19.6536684 155.153351,21.42123 C156.603237,23.1888389 157.328217,25.7424701 157.328217,29.0821318 L157.328217,44.3795016 Z" id="path3012"></path>
            <path d="M185.014985,32.8698195 L167.347259,32.8698195 C167.412417,35.65561 168.161808,37.8060373 169.595435,39.3211068 C171.029044,40.8361846 173.000269,41.5937194 175.509114,41.5937166 C178.32746,41.5937194 180.917747,40.6651262 183.279981,38.8079344 L183.279981,42.5711855 C181.080659,44.1677166 178.172694,44.9659807 174.556082,44.9659807 C171.020898,44.9659807 168.243264,43.8296758 166.223171,41.5570632 C164.203068,39.2844562 163.193022,36.0873264 163.193022,31.9656628 C163.193022,28.0720994 164.296742,24.8994061 166.504194,22.447572 C168.711633,19.9957824 171.452612,18.76985 174.72714,18.76985 C178.001639,18.76985 180.534906,19.8287972 182.326949,21.9466193 C184.11895,24.0644858 185.014985,27.0050308 185.014985,30.7682652 L185.014985,32.8698195 Z M180.909623,29.4731188 C180.893302,27.1597963 180.335341,25.3596295 179.235709,24.0726128 C178.136041,22.785635 176.608749,22.1421142 174.65383,22.1421142 C172.764047,22.1421142 171.159373,22.8182152 169.839802,24.1703589 C168.520213,25.5225414 167.705657,27.2901253 167.396133,29.4731188 L180.909623,29.4731188 Z" id="path3014"></path>
            <path d="M191.637328,44.3795016 L191.637328,9.33728842 L201.314258,9.33728842 C213.662903,9.33728842 219.837267,15.031066 219.837267,26.4185349 C219.837267,31.8272013 218.122596,36.1728528 214.693346,39.4555062 C211.264037,42.7381707 206.674018,44.3795016 200.923271,44.3795016 L191.637328,44.3795016 Z M195.742693,13.0516638 L195.742693,40.6651234 L200.972144,40.6651234 C205.566222,40.6651234 209.142122,39.4351485 211.699849,36.9751846 C214.257528,34.5152347 215.53641,31.0289372 215.53641,26.516281 C215.53641,17.5398973 210.763087,13.0516638 201.216512,13.0516638 L195.742693,13.0516638 Z" id="path3016"></path>
            <path d="M239.239999,23.4128213 C238.539464,22.8752347 237.529415,22.606433 236.209849,22.6064108 C234.499268,22.606433 233.069725,23.4128408 231.921211,25.0256424 C230.772678,26.638483 230.198416,28.8377805 230.198424,31.6235488 L230.198424,44.3795016 L226.190805,44.3795016 L226.190805,19.356332 L230.198424,19.356332 L230.198424,24.5124728 L230.296171,24.5124728 C230.866351,22.7530521 231.737925,21.3805257 232.910897,20.3948908 C234.083844,19.4093005 235.395281,18.9164691 236.845204,18.9164691 C237.887819,18.9164691 238.686083,19.0305331 239.239999,19.2585831 L239.239999,23.4128213 Z" id="path3018"></path>
            <path d="M245.642411,13.0027907 C244.925597,13.0027907 244.314678,12.7584562 243.809658,12.2696897 C243.304632,11.78099 243.052123,11.1619279 243.052123,10.4125034 C243.052123,9.66314569 243.304632,9.04001038 243.809658,8.54309472 C244.314678,8.04625134 244.925597,7.79777683 245.642411,7.79777683 C246.375506,7.79777683 246.998639,8.04625134 247.511816,8.54309472 C248.024981,9.04001038 248.281574,9.66314569 248.281574,10.4125034 C248.281574,11.1293449 248.024981,11.7402606 247.511816,12.2452532 C246.998639,12.7503097 246.375506,13.0027907 245.642411,13.0027907 L245.642411,13.0027907 Z M247.597346,44.3795016 L243.589729,44.3795016 L243.589729,19.356332 L247.597346,19.356332 L247.597346,44.3795016 Z" id="path3020"></path>
            <path d="M275.381861,19.356332 L265.411693,44.3795016 L261.477386,44.3795016 L251.995949,19.356332 L256.394555,19.356332 L262.748094,37.5372272 C263.220525,38.8731058 263.513764,40.0379205 263.627814,41.031674 L263.72556,41.031674 C263.888461,39.7772625 264.149119,38.6450308 264.507534,37.6349733 L271.154313,19.356332 L275.381861,19.356332 Z" id="path3022"></path>
            <path d="M299.769678,32.8698195 L282.10195,32.8698195 C282.16711,35.65561 282.916501,37.8060373 284.350126,39.3211068 C285.783737,40.8361846 287.754959,41.5937194 290.263804,41.5937166 C293.082153,41.5937194 295.67244,40.6651262 298.034672,38.8079344 L298.034672,42.5711855 C295.835349,44.1677166 292.927387,44.9659807 289.310775,44.9659807 C285.77559,44.9659807 282.997955,43.8296758 280.977865,41.5570632 C278.957761,39.2844562 277.947715,36.0873264 277.947715,31.9656628 C277.947715,28.0720994 279.051434,24.8994061 281.258886,22.447572 C283.466324,19.9957824 286.207304,18.76985 289.48183,18.76985 C292.756332,18.76985 295.289597,19.8287972 297.081642,21.9466193 C298.873643,24.0644858 299.769678,27.0050308 299.769678,30.7682652 L299.769678,32.8698195 Z M295.664313,29.4731188 C295.647993,27.1597963 295.090032,25.3596295 293.990399,24.0726128 C292.890731,22.785635 291.363439,22.1421142 289.408521,22.1421142 C287.518738,22.1421142 285.914063,22.8182152 284.594494,24.1703589 C283.274905,25.5225414 282.460348,27.2901253 282.150826,29.4731188 L295.664313,29.4731188 Z" id="path3024"></path>
        </g>
    </g>
</svg>