<?xml version="1.0" encoding="UTF-8"?>
<svg width="612px" height="612px" viewBox="0 0 612 612" version="1.1" xmlns="http://www.w3.org/2000/svg" xmlns:xlink="http://www.w3.org/1999/xlink">
    <!-- Generator: Sketch 51.3 (57544) - http://www.bohemiancoding.com/sketch -->
    <title>clock</title>
    <desc>Created with Sketch.</desc>
    <defs></defs>
    <g id="Page-1" stroke="none" stroke-width="1" fill="none" fill-rule="evenodd">
        <g id="clock" fill-rule="nonzero">
            <path d="M587.572,186.881 C555.306,111.656 500.476,56.947 424.623,24.596 C386.711,8.427 346.992,0.168 305.497,0.168 C264.009,0.168 224.583,8.349 186.713,24.596 C111.488,56.861 56.415,111.535 24.092,186.881 C7.895,224.629 0,264.176 0,305.664 C0,347.16 7.895,387.035 24.092,424.791 C56.415,500.137 111.495,555.139 186.713,587.412 C224.59,603.659 264.008,611.832 305.497,611.832 C346.986,611.832 386.711,603.573 424.617,587.412 C500.47,555.06 555.3,500.009 587.573,424.791 C603.819,386.914 612,347.16 612,305.664 C612,264.176 603.826,224.757 587.572,186.881 Z" id="Shape" fill="#9B9B9B"></path>
            <path d="M324.906,302.988 L324.906,129.659 C324.906,119.287 315.869,110.921 305.496,110.921 C295.795,110.921 287.093,119.287 287.093,129.659 L287.093,305.664 C287.093,306 287.764,307.342 287.764,308.342 C287.093,314.366 288.771,319.385 292.783,323.404 L392.836,423.45 C399.531,430.145 411.909,430.145 418.599,423.45 C426.293,415.755 425.787,404.59 418.599,397.351 L324.906,302.988 Z" id="Shape" fill="#EBEDEE"></path>
        </g>
    </g>
</svg>