<svg xmlns="http://www.w3.org/2000/svg" width="40.533" height="38" viewBox="0 0 40.533 38">
  <g id="Group_58" data-name="Group 58" transform="translate(-56 -66)">
    <g id="Group_53" data-name="Group 53" transform="translate(56 66)">
      <path id="Path_658" data-name="Path 658" d="M94,68.533V93.867H86.4v4.018l-3.276-3.276-.742-.742H58.533V68.533ZM96.533,66H56V96.4H81.333l7.6,7.6V96.4h7.6V66Z" transform="translate(-56 -66)" fill="#fff"/>
    </g>
    <g id="Group_57" data-name="Group 57" transform="translate(66.133 71.067)">
      <g id="Group_54" data-name="Group 54" transform="translate(0 5.067)">
        <path id="Path_659" data-name="Path 659" d="M71.6,87.933H64V85.4h5.067V76.533H64V74h7.6Z" transform="translate(-64 -74)" fill="#fff"/>
      </g>
      <g id="Group_55" data-name="Group 55" transform="translate(5.067)">
        <path id="Path_660" data-name="Path 660" d="M80.667,87.733H68v-11.4h3.276l.524-.524V70h1.267a5.072,5.072,0,0,1,5.067,5.067v1.267h2.533a3.8,3.8,0,0,1,3.8,3.8v3.8A3.8,3.8,0,0,1,80.667,87.733ZM70.533,85.2H80.667a1.269,1.269,0,0,0,1.267-1.267v-3.8a1.269,1.269,0,0,0-1.267-1.267H75.6v-3.8a2.534,2.534,0,0,0-1.267-2.193v3.984l-2.009,2.009H70.533Z" transform="translate(-68 -70)" fill="#fff"/>
      </g>
      <g id="Group_56" data-name="Group 56" transform="translate(0.044 6.422)">
        <rect id="Rectangle_65" data-name="Rectangle 65" width="2" height="12" transform="translate(0.339 -0.488)" fill="#fff"/>
      </g>
    </g>
  </g>
</svg>
