<svg xmlns="http://www.w3.org/2000/svg" width="53.354" height="58.089" viewBox="0 0 53.354 58.089">
  <g id="Group_59" data-name="Group 59" transform="translate(-49 -173.89)">
    <path id="Path_661" data-name="Path 661" d="M102.354,198.25H100.42L97.538,199.9a4.087,4.087,0,0,0-1.026-.459l-3.625-.988V198a6.767,6.767,0,0,0,2.583-5.377v-1.638c0-3.64-2.62-6.686-5.839-6.792-.163,0-.324,0-.486.011l.94-2.4-4.557-4.96-2.686,1.9A13.925,13.925,0,0,0,79.62,177.3l-.663-3.412H72.4l-.663,3.413a13.909,13.909,0,0,0-3.221,1.455l-2.686-1.9-4.553,4.957.924,2.4c-.035,0-.069-.009-.1-.01a5.722,5.722,0,0,0-4.379,1.849,6.791,6.791,0,0,0-1.83,4.706v1.874A6.764,6.764,0,0,0,58.466,198v.45L56.1,199.1l-4.286-2.721H49V215.79l8.466,3.072h1.649l.206-.785,2.6,1.7A2.807,2.807,0,0,0,64.5,222.6a2.806,2.806,0,0,0,2.582,2.811,2.806,2.806,0,0,0,2.582,2.811,2.8,2.8,0,0,0,2.676,2.821,2.559,2.559,0,0,0,1.508-.508l.762.733a2.5,2.5,0,0,0,1.732.712H76.5a2.741,2.741,0,0,0,2.615-2.814,2.741,2.741,0,0,0,2.582-2.811,2.742,2.742,0,0,0,2.582-2.814,2.777,2.777,0,0,0,2.585-2.875c0-.094,0-.187-.013-.281l15.5-8.439Zm-8.605-7.259v1.638a4.793,4.793,0,0,1-2.154,4.054l-.43.271,0,2.965,4.3,1.169L86,206.51v-2.524a4.881,4.881,0,0,0-1.232-3.265l2.954-.8v-2.967l-.429-.27a4.788,4.788,0,0,1-2.152-4.052v-1.874a4.855,4.855,0,0,1,1.307-3.362,4.061,4.061,0,0,1,3.129-1.319c2.3.075,4.17,2.281,4.17,4.918ZM76.974,205.774l-3.9-1.355a9.8,9.8,0,0,0-5.514-.274l-.493.119v-.277a2.775,2.775,0,0,1,1.955-2.727l4.929-1.341v-2.967l-.429-.27a4.788,4.788,0,0,1-2.152-4.052v-1.874a4.855,4.855,0,0,1,1.307-3.362,4.071,4.071,0,0,1,3.129-1.319c2.3.075,4.17,2.281,4.17,4.918v1.638a4.793,4.793,0,0,1-2.154,4.054l-.43.271,0,2.965,4.928,1.341a2.775,2.775,0,0,1,1.955,2.727V207.5l-.213.122h-.527l-5.291-1.646a5.016,5.016,0,0,0-1.277-.2Zm-9.71-17.861a9.123,9.123,0,0,1,16.79-.075,6.992,6.992,0,0,0-.632,2.917v1.874A6.764,6.764,0,0,0,86,198v.45l-3.442.938-3.443-.938V198a6.767,6.767,0,0,0,2.583-5.377v-1.638c0-3.64-2.62-6.686-5.839-6.792a5.721,5.721,0,0,0-4.379,1.849,6.8,6.8,0,0,0-1.83,4.707v1.874A6.764,6.764,0,0,0,72.235,198v.45l-3.442.938-3.443-.938V198a6.767,6.767,0,0,0,2.582-5.377v-1.638a7.411,7.411,0,0,0-.668-3.078Zm-3.958-5.666,2.749-2.993,2.42,1.715.463-.309a12.291,12.291,0,0,1,3.726-1.683l.529-.138.6-3.074h3.768l.6,3.073.529.138a12.3,12.3,0,0,1,3.726,1.683l.463.309,2.42-1.715,2.746,2.991-.976,2.488a6.006,6.006,0,0,0-1.817,1.315c-.035.037-.066.078-.1.116a10.714,10.714,0,0,0-18.98.056,6.1,6.1,0,0,0-1.9-1.465Zm-3.119,17.672v-2.967l-.429-.27a4.788,4.788,0,0,1-2.152-4.052v-1.874a4.855,4.855,0,0,1,1.307-3.362,4.065,4.065,0,0,1,3.129-1.319c2.3.075,4.17,2.281,4.17,4.918v1.638a4.793,4.793,0,0,1-2.154,4.054l-.43.271,0,2.965,2.953.8a4.881,4.881,0,0,0-1.232,3.265v.694l-2.684.65.07-.265.033-1.732-4.538-2.883Zm-9.466-1.668h.627l6.189,3.93-3.123,13.6-3.693-1.341Zm7.024,18.738-1.694-.614,3.034-13.211,1.963,1.246v.268l-3.23,12.311Zm5.884,2.7a1.107,1.107,0,0,1,.282-.743l1.513-1.647a.933.933,0,0,1,.682-.307,1.011,1.011,0,0,1,.965,1.05,1.107,1.107,0,0,1-.282.743l-1.513,1.647a.933.933,0,0,1-.682.307,1.011,1.011,0,0,1-.965-1.05Zm2.582,2.811a1.107,1.107,0,0,1,.282-.743l1.513-1.647a.933.933,0,0,1,.682-.307,1.011,1.011,0,0,1,.965,1.05,1.107,1.107,0,0,1-.282.743l-1.513,1.647a.933.933,0,0,1-.682.307,1.011,1.011,0,0,1-.965-1.05Zm2.582,2.811a1.107,1.107,0,0,1,.282-.743l1.513-1.647a.933.933,0,0,1,.682-.307,1.011,1.011,0,0,1,.965,1.05,1.107,1.107,0,0,1-.282.743L70.44,226.05a.932.932,0,0,1-.682.307,1.011,1.011,0,0,1-.965-1.05Zm3.546,3.861a1.011,1.011,0,0,1-.965-1.05,1.107,1.107,0,0,1,.282-.743l1.513-1.647a.933.933,0,0,1,.682-.307,1.011,1.011,0,0,1,.965,1.05,1.107,1.107,0,0,1-.282.743l-1.513,1.647a.933.933,0,0,1-.682.307Zm4.161.937h-.159a.851.851,0,0,1-.593-.245l-.644-.618.646-.7a2.94,2.94,0,0,0,.542-.871l.782.709a1.012,1.012,0,0,1,.323.751.941.941,0,0,1-.9.977Zm7.717-8.432h-.149a.879.879,0,0,1-.592-.234L78.81,217.2l-1.1,1.44,4.532,4.111a1.014,1.014,0,0,1,.322.751.941.941,0,0,1-.9.977h-.188a.855.855,0,0,1-.574-.227l-4.674-4.24-1.1,1.44,4.532,4.111a1.006,1.006,0,0,1,.323.749.941.941,0,0,1-.9.977,1.353,1.353,0,0,1-.906-.357l-1.921-1.743a2.677,2.677,0,0,0-2.311-1.637,2.806,2.806,0,0,0-2.582-2.811,2.806,2.806,0,0,0-2.582-2.811,2.8,2.8,0,0,0-2.675-2.821,2.6,2.6,0,0,0-1.9.856l-1.513,1.647a2.866,2.866,0,0,0-.241.321l-2.643-1.727,2.317-8.83,5.81-1.406a8.173,8.173,0,0,1,4.617.227l1.268.442-4.3,2.339a3.163,3.163,0,0,0-1.592,2.807v.185a3.022,3.022,0,0,0,2.883,3.139,2.7,2.7,0,0,0,1.483-.448l3.2-2.092a1.664,1.664,0,0,1,2.064.216l7.271,7.124a1.057,1.057,0,0,1,.306.75.97.97,0,0,1-.925,1.007Zm16.415-10.885-14.5,7.893c-.047-.054-.1-.106-.148-.156l-7.27-7.124a3.3,3.3,0,0,0-2.319-.97,3.256,3.256,0,0,0-1.783.538l-3.206,2.093a1.082,1.082,0,0,1-.6.18,1.217,1.217,0,0,1-1.162-1.265v-.185a1.273,1.273,0,0,1,.642-1.131l4.8-2.613a3.464,3.464,0,0,1,2.682-.271l5.408,1.682,1.31.036,16.138-9.247Zm0,0" fill="#fff"/>
  </g>
</svg>
